<?xml version="1.0" encoding="UTF-8"?>
<svg version="1.1" xmlns="http://www.w3.org/2000/svg" width="500" height="500">
<path d="M0 0 C2.44441205 1.30368643 2.83189694 2.46201654 3.875 5 C4.17456055 7.08374023 4.17456055 7.08374023 4.26171875 9.30859375 C5.21091772 25.88793568 9.86346826 36.11124371 21.875 48 C22.53886719 48.69738281 23.20273437 49.39476562 23.88671875 50.11328125 C37.55025699 63.51656162 55.68552483 67.50688083 74.25195312 67.35205078 C85.34805307 67.05909111 94.93463594 64.93853682 103.875 58 C104.87841259 56.66923295 105.8791614 55.33644426 106.875 54 C107.535 54 108.195 54 108.875 54 C108.875 53.34 108.875 52.68 108.875 52 C109.535 52 110.195 52 110.875 52 C111.101875 51.443125 111.32875 50.88625 111.5625 50.3125 C113.78650126 46.3940216 116.27129275 43.51027049 120.625 42.125 C121.3675 42.08375 122.11 42.0425 122.875 42 C123.875 43 123.875 43 124.08129883 45.67651367 C123.8548567 49.32450982 122.99702548 51.81818573 121.57421875 55.17578125 C121.09146484 56.33400391 120.60871094 57.49222656 120.11132812 58.68554688 C119.3446582 60.48088867 119.3446582 60.48088867 118.5625 62.3125 C111.80116287 77.16224741 111.80116287 77.16224741 109.375 93.0625 C109.38144531 93.78856445 109.38789063 94.51462891 109.39453125 95.26269531 C109.94057545 111.86674992 118.00366711 126.85513977 129.37109375 138.72265625 C143.4264285 151.50621344 162.34950371 154.32279502 180.29882812 158.44018555 C181.13220703 158.63136963 181.96558594 158.82255371 182.82421875 159.01953125 C183.92769653 159.26860229 183.92769653 159.26860229 185.0534668 159.52270508 C186.875 160 186.875 160 188.875 161 C188.875 161.99 188.875 162.98 188.875 164 C187.13476562 164.32871094 187.13476562 164.32871094 185.359375 164.6640625 C167.57397309 168.19327565 153.35603223 174.92760914 142.9375 190.375 C133.37724349 206.64379837 130.91995636 226.28901724 134.9375 244.75 C137.7943526 253.82784938 142.75116938 261.3585945 149.68359375 267.7890625 C152.47643876 270.60679918 154.85068004 273.65842563 157.25 276.8125 C157.67901611 277.37638428 158.10803223 277.94026855 158.55004883 278.52124023 C163.875 285.58681604 163.875 285.58681604 163.875 289 C158.74194767 288.41904989 154.78674904 286.74068399 150.1875 284.5625 C134.62695462 277.49503982 119.36220982 277.42501555 103.25 283.1875 C87.36207619 289.70951168 77.16993968 301.76644949 69.875 317 C64.37826125 331.53617329 64.39175986 344.43314144 66.2512207 359.62573242 C66.97809105 365.79381791 66.97809105 365.79381791 65.875 368 C64.225 368 62.575 368 60.875 368 C60.37871094 366.97261719 59.88242187 365.94523437 59.37109375 364.88671875 C50.89136422 347.49580163 43.17461366 334.55291272 24.2734375 327.15234375 C7.98505801 321.62927255 -11.3353778 322.35032705 -27.0390625 329.3984375 C-38.74653425 335.47446714 -46.64732522 342.45372948 -52.3125 354.5625 C-54.125 358 -54.125 358 -56.11328125 358.83984375 C-57.10908203 358.91912109 -57.10908203 358.91912109 -58.125 359 C-60.125 357 -60.125 357 -60.36450195 354.5324707 C-60.36409912 353.50726318 -60.36369629 352.48205566 -60.36328125 351.42578125 C-60.37576904 350.29003662 -60.38825684 349.15429199 -60.40112305 347.98413086 C-60.41312744 346.77249268 -60.42513184 345.56085449 -60.4375 344.3125 C-60.86974673 326.26590287 -65.17555795 311.93360978 -77.8046875 298.59375 C-79.125 297 -79.125 297 -79.125 295 C-79.71410156 294.72671875 -80.30320312 294.4534375 -80.91015625 294.171875 C-83.05612748 293.03644049 -84.6985785 291.79427349 -86.5625 290.25 C-99.46107556 280.41332929 -114.29414585 277.36053782 -130.125 279 C-139.58799737 280.74158124 -148.67561647 284.41089104 -157.48828125 288.1796875 C-160.25187947 289.03947361 -161.4643683 289.02380602 -164.125 288 C-162.99645099 280.39084376 -154.23965064 275.035283 -148.5625 270.625 C-138.27733873 262.32772704 -132.38823475 251.97446692 -130.125 239 C-129.88286711 234.96078321 -129.8939498 230.92078297 -129.875 226.875 C-129.854375 225.79734375 -129.83375 224.7196875 -129.8125 223.609375 C-129.7373297 208.01153852 -135.84535851 191.19748967 -146.453125 179.4765625 C-157.30230145 169.8948132 -171.88459256 165.24500796 -185.125 160 C-185.125 159.01 -185.125 158.02 -185.125 157 C-181.17292037 156.00794736 -177.38302995 155.86514666 -173.3359375 155.76123047 C-158.31026417 155.3328172 -145.75445902 152.66274161 -133.125 144 C-132.25101563 143.40316406 -131.37703125 142.80632812 -130.4765625 142.19140625 C-120.41302158 134.74438597 -113.43936798 124.69109128 -109.125 113 C-108.80660156 112.14019531 -108.48820312 111.28039062 -108.16015625 110.39453125 C-104.27558932 98.27539848 -104.75816515 88.4365292 -110.5 77.25 C-112.32739352 73.80596394 -114.22246391 70.4029205 -116.125 67 C-117.54747003 64.38095609 -118.95674198 61.75556102 -120.35595703 59.12402344 C-121.22191671 57.49880098 -122.0986592 55.87926251 -122.98779297 54.26660156 C-125.20712043 50.15927017 -126.69664006 46.73450456 -127.125 42 C-125.805 41.34 -124.485 40.68 -123.125 40 C-121.97829616 40.85299768 -120.83271066 41.70749867 -119.6875 42.5625 C-118.95144531 43.11164063 -118.21539062 43.66078125 -117.45703125 44.2265625 C-115.95842035 45.36620965 -114.47498933 46.52625633 -113.01171875 47.7109375 C-97.1324002 60.54212361 -79.61819969 68.33361386 -59.125 67 C-41.80611747 64.60418741 -27.64299847 53.4745057 -17.125 40 C-10.89988578 30.40239349 -7.8435647 18.98597859 -6.6328125 7.67578125 C-6.125 4 -6.125 4 -4.3125 1.4375 C-2.125 0 -2.125 0 0 0 Z M-5.125 40 C-6.32037573 41.60399906 -7.47996208 43.23468775 -8.625 44.875 C-21.24422379 62.27389439 -36.6132966 72.65105778 -57.97412109 76.17993164 C-67.17637487 77.55601805 -75.89890102 76.98224628 -85.125 76 C-76.0497793 85.51056339 -63.20134601 95.04829896 -49.6875 95.5625 C-34.6920047 94.92136243 -23.33423466 87.4657481 -13.125 77 C-6.09506687 68.45207293 -3.60608574 59.89116607 -3.9375 48.9375 C-3.95103516 48.07189453 -3.96457031 47.20628906 -3.97851562 46.31445312 C-4.0134067 44.20935826 -4.06719335 42.10459026 -4.125 40 C-4.455 40 -4.785 40 -5.125 40 Z M4.875 46 C4.14358431 56.78838142 6.83460432 66.74396942 13.96875 75.01171875 C24.10405189 85.58317093 34.9083792 91.73871799 49.64868164 92.33227539 C62.34762906 92.59047404 72.52283028 88.28486018 82.875 81 C83.90443481 79.68925909 84.90972849 78.35868639 85.875 77 C85.11058594 76.9906543 84.34617187 76.98130859 83.55859375 76.97167969 C58.11026351 76.58122697 34.25273498 74.26032402 15.33984375 55.6328125 C13.25046864 53.40105525 11.22158573 51.14814352 9.25 48.8125 C8.46625 47.884375 7.6825 46.95625 6.875 46 C6.215 46 5.555 46 4.875 46 Z M96.25 80.125 C87.1533629 89.27080811 83.58231095 100.67188968 83.55810547 113.29101562 C83.77233562 125.7639711 88.77060967 135.76841343 97.25 144.75 C105.8092695 152.7546732 116.57910069 156.94413536 128.35546875 157.0234375 C130.89935089 156.79307301 133.36903667 156.48845048 135.875 156 C133.69094374 153.64793941 131.62801268 151.83709347 128.9375 150.0625 C125.77801679 147.93468477 123.47356217 145.78417375 120.875 143 C119.94494141 142.02546875 119.94494141 142.02546875 118.99609375 141.03125 C110.60695725 131.98944823 105.84424692 122.98496028 102.875 111 C102.69404785 110.2776416 102.5130957 109.5552832 102.32666016 108.81103516 C100.76565742 101.9594318 100.6393542 95.37973031 100.75 88.375 C100.75902344 87.27542969 100.76804687 86.17585938 100.77734375 85.04296875 C100.80065876 82.36174242 100.8333796 79.68099393 100.875 77 C98.93145418 77 97.59551266 78.88338793 96.25 80.125 Z M4.875 80 C4.40542308 89.30457974 4.95019856 96.77614232 11 104.1875 C18.09536278 111.67042461 26.90968058 116.93894502 37.375 117.375 C43.95488215 117.1334309 50.57120498 114.93507372 55.875 111 C55.875 110.34 55.875 109.68 55.875 109 C56.865 108.67 57.855 108.34 58.875 108 C61.28495366 105.36458982 61.28495366 105.36458982 61.875 102 C60.60527344 101.97421875 59.33554687 101.9484375 58.02734375 101.921875 C40.07306548 101.39813557 24.47858154 98.65449445 10.875 86 C9.15894375 84.03679434 7.52143475 82.02276269 5.875 80 C5.545 80 5.215 80 4.875 80 Z M-97.125 81 C-97.10179687 81.825 -97.07859375 82.65 -97.0546875 83.5 C-96.68155093 107.38074033 -101.93854459 127.45758798 -119.00390625 145.12890625 C-123.21859218 149.21226798 -128.12714519 152.18837995 -133.15625 155.16015625 C-135.54833544 156.64261973 -137.29477348 157.90177602 -139.125 160 C-123.73510707 162.19431999 -106.66209754 160.88384615 -93.875 151.375 C-84.23434953 143.09628269 -78.7469556 132.65305202 -77.1875 120.0625 C-76.51778745 107.12030495 -81.69035204 96.86952909 -90.06811523 87.38891602 C-92.04049675 85.20836016 -94.03595951 83.06936968 -96.125 81 C-96.455 81 -96.785 81 -97.125 81 Z M-5.125 82 C-6.34359938 83.29969706 -7.56017167 84.60135245 -8.76660156 85.91235352 C-19.82204924 97.71332807 -33.20064407 103.28512651 -49.29345703 104.11132812 C-53.57665997 104.23033264 -57.84274302 104.16612204 -62.125 104 C-55.87198687 111.64973427 -50.93793222 116.1304325 -40.80859375 117.2578125 C-30.24162302 117.76665539 -20.93533694 113.97286491 -13.125 107 C-12.2175 106.21625 -11.31 105.4325 -10.375 104.625 C-4.20986794 97.43234593 -3.56375342 91.3541097 -4.125 82 C-4.455 82 -4.785 82 -5.125 82 Z M70.16796875 108.65234375 C63.25210492 116.15842973 58.39107042 124.16245044 58.60546875 134.66796875 C59.76528152 144.70287055 65.20062318 152.80854886 72.52734375 159.51171875 C77.73563447 163.14096779 83.85867652 162.39745142 89.875 162 C90.76703125 161.94457031 91.6590625 161.88914063 92.578125 161.83203125 C97.20468572 161.56073475 97.20468572 161.56073475 100.875 159 C100.23433594 158.5153125 99.59367187 158.030625 98.93359375 157.53125 C83.65731928 145.69270644 76.10852604 132.95259901 73.625 113.6875 C73.36369276 111.45963049 73.10950155 109.2308503 72.875 107 C71.59879517 106.88408274 71.59879517 106.88408274 70.16796875 108.65234375 Z M4.875 112 C4.54583105 118.74186768 4.34460539 124.11600898 7.875 130 C12.73851609 134.97405054 17.20431703 136.85881989 24.125 137.125 C29.84546526 135.40886042 34.42038789 131.9390693 38.875 128 C38.875 127.34 38.875 126.68 38.875 126 C38.06417969 125.90203125 37.25335938 125.8040625 36.41796875 125.703125 C25.84661693 124.27556177 16.83845627 122.35088271 8.875 115 C8.215 115 7.555 115 6.875 115 C6.545 114.01 6.215 113.02 5.875 112 C5.545 112 5.215 112 4.875 112 Z M-68.125 114 C-68.21136719 114.93199219 -68.29773438 115.86398438 -68.38671875 116.82421875 C-70.26562204 133.87224954 -75.92102 146.42998 -89.36328125 157.52734375 C-91.05105208 158.93818544 -92.59412794 160.42202418 -94.125 162 C-84.96662414 161.40913704 -76.59823832 159.23929541 -69.7265625 152.83984375 C-63.33611372 145.49862089 -60.74936231 138.33130604 -60.8359375 128.70703125 C-61.32202652 124.15487326 -62.84557952 119.96420953 -65.125 116 C-66.115 115.34 -67.105 114.68 -68.125 114 Z M-6.125 114 C-6.65867188 114.38671875 -7.19234375 114.7734375 -7.7421875 115.171875 C-18.18266928 122.46937438 -27.64507206 124.7353673 -40.125 126 C-35.74346637 130.67229902 -30.3866149 134.78937653 -23.75390625 135.1171875 C-17.57492486 134.11055968 -13.08521888 130.73620772 -9.125 126 C-7.38463325 123.11691991 -5.93218262 120.27957663 -5.125 117 C-5.62 115.515 -5.62 115.515 -6.125 114 Z M-52.125 130 C-52.21136719 130.96679688 -52.29773438 131.93359375 -52.38671875 132.9296875 C-53.71392584 145.22766146 -56.68666536 153.56812285 -66.125 162 C-67.13072396 162.99424309 -68.13254685 163.99250968 -69.125 165 C-62.42683112 167.23272296 -58.10152302 166.26822911 -51.875 163.25 C-47.20803953 160.85606691 -43.51772731 158.4372728 -40.875 153.8125 C-39.76521351 149.65080066 -39.00478473 146.24081495 -40.125 142 C-43.44806346 137.23331061 -47.28908967 133.22394022 -52.125 130 Z M48.875 131 C47.52613451 132.36072365 46.22089385 133.76485908 44.9375 135.1875 C44.22722656 135.96480469 43.51695312 136.74210938 42.78515625 137.54296875 C39.19564928 142.16014642 38.2628579 146.18465 38.875 152 C41.73812795 157.40813056 44.89434384 160.9862538 50.7578125 162.98046875 C55.26915447 164.22819941 55.26915447 164.22819941 59.875 165 C60.865 164.34 61.855 163.68 62.875 163 C61.9675 162.05125 61.06 161.1025 60.125 160.125 C53.11752973 151.84794099 51.69858368 141.36127091 49.875 131 C49.545 131 49.215 131 48.875 131 Z M118.1875 172.5625 C117.07064405 173.35746734 115.9642945 174.16766728 114.875 175 C113.6065625 175.8353125 113.6065625 175.8353125 112.3125 176.6875 C102.52421242 185.97382411 100.45006303 195.94399515 99.91015625 208.88671875 C99.62617038 221.68999742 102.75658057 231.29689705 111.37109375 240.6796875 C116.095216 245.05742325 121.4741608 248.51744668 126.875 252 C128.29098706 249.16802588 127.39240683 247.74652203 126.5 244.75 C121.11070324 226.51705208 122.83300831 206.53376125 131.55541992 189.64379883 C137.25132929 179.29003754 145.62320311 172.15933442 154.875 165 C143.6999378 161.60570541 127.87207818 166.64923204 118.1875 172.5625 Z M-140.125 169 C-138.7696674 171.53673288 -138.7696674 171.53673288 -137.125 174 C-136.465 174 -135.805 174 -135.125 174 C-134.85300781 174.58652344 -134.58101562 175.17304688 -134.30078125 175.77734375 C-133.14780864 177.95688333 -131.87057711 179.65909709 -130.3125 181.5625 C-117.11153669 199.09954615 -115.7164443 222.88290818 -118.65234375 243.84375 C-118.80832031 244.8853125 -118.96429688 245.926875 -119.125 247 C-110.58458368 244.38633811 -102.99000208 239.65347888 -98.125 232 C-91.82533725 219.96602886 -91.69574036 205.56926318 -95.62890625 192.77734375 C-98.40626641 185.07639239 -104.04841673 177.21916509 -111.07421875 172.890625 C-120.41727963 168.83306713 -130.09953918 168.59417175 -140.125 169 Z M81.875 179 C81.153125 179.63292969 80.43125 180.26585937 79.6875 180.91796875 C73.91942715 186.23010937 70.43798991 191.57650783 69.4375 199.4375 C70.63433499 209.18315632 73.74274347 217.05845572 81.56738281 223.36376953 C85.56943561 226.39288438 89.69516376 229.22310463 93.875 232 C94.865 231.505 94.865 231.505 95.875 231 C95.67003906 230.35675781 95.46507812 229.71351563 95.25390625 229.05078125 C90.79965461 214.11092288 90.37508576 198.75557672 97.44140625 184.5390625 C99.31080968 181.22813 101.34544486 178.07470185 103.54296875 174.97265625 C104.84556485 173.04359165 105.88249178 171.10261221 106.875 169 C96.84153217 169 89.07071191 172.19950711 81.875 179 Z M-98.125 173 C-96.67131062 175.45310083 -95.20503374 177.87974096 -93.625 180.25390625 C-85.11272823 193.35482451 -84.42526665 208.49060734 -87.125 223.5625 C-87.44224924 225.04519958 -87.76849791 226.52624582 -88.125 228 C-80.34901647 222.68957222 -75.63303911 213.9641398 -73.125 205 C-72.08829693 196.65252074 -73.71262723 188.76046344 -78.25 181.6875 C-84.21480999 176.11169936 -89.99285472 173.44357156 -98.125 173 Z M46.875 181 C44.85369398 185.04261205 45.30403436 189.61520561 45.875 194 C48.32052224 200.92145963 51.67482267 205.74680197 58.140625 209.29296875 C59.87151176 210.12583188 59.87151176 210.12583188 61.875 210 C61.85405273 209.41621582 61.83310547 208.83243164 61.81152344 208.23095703 C61.09299759 185.19720121 61.09299759 185.19720121 67.51171875 176.87890625 C69.07075695 175.11710053 69.07075695 175.11710053 68.875 173 C60.64747945 172.28456343 52.84050593 175.22692975 46.875 181 Z M-74.125 174 C-73.63128906 174.96421875 -73.13757813 175.9284375 -72.62890625 176.921875 C-71.98155763 178.19780852 -71.33443401 179.47385621 -70.6875 180.75 C-70.36201172 181.38421875 -70.03652344 182.0184375 -69.70117188 182.671875 C-66.63502564 188.74094796 -65.96282633 193.12178285 -66 199.875 C-65.99613281 200.56980469 -65.99226563 201.26460937 -65.98828125 201.98046875 C-65.99602402 206.09187906 -66.32859751 209.9674223 -67.125 214 C-58.66706224 212.04816821 -50.8307812 205.20992905 -46.125 198 C-44.51285803 192.96697142 -44.68642628 188.41318199 -46.25 183.375 C-48.44526887 179.42351603 -50.31877337 177.44173029 -54.125 175 C-60.68596698 173.52943844 -67.42555825 173.89950837 -74.125 174 Z M26.35546875 213.73046875 C23.90325191 217.11493331 22.47418609 219.8932266 22.75 224.125 C23.90319714 230.62172446 26.5102188 236.86553068 28.875 243 C31.61320376 240.33013743 34.1117977 237.74710361 36.3125 234.625 C42.19910017 227.61933262 52.2636694 224.25456293 60.875 222 C57.53096042 218.47972049 53.65581427 215.98248381 49.625 213.3125 C48.88636719 212.80138672 48.14773438 212.29027344 47.38671875 211.76367188 C39.54818674 206.58636987 32.96586996 206.2024283 26.35546875 213.73046875 Z M-61.125 223 C-60.2071875 223.21914063 -59.289375 223.43828125 -58.34375 223.6640625 C-46.80222391 226.64643164 -39.62327065 230.79710776 -33.125 241 C-32.06908082 242.97104913 -31.04260331 244.96088152 -30.125 247 C-29.465 247 -28.805 247 -28.125 247 C-23.22270997 233.83103664 -23.22270997 233.83103664 -23.125 220 C-25.58067552 214.99769802 -29.1220307 211.50148465 -34.125 209 C-45.03164827 207.00044782 -53.99341495 215.46341136 -61.125 223 Z M-12.6796875 228.6953125 C-14.48262227 231.57026253 -15.3932312 234.37930167 -16.375 237.625 C-16.90867188 239.34589844 -16.90867188 239.34589844 -17.453125 241.1015625 C-18.43092259 243.91952134 -18.43092259 243.91952134 -17.125 246 C-16.48175781 245.7834375 -15.83851563 245.566875 -15.17578125 245.34375 C-4.05257031 241.91634121 5.9582831 241.93257459 16.875 246 C17.865 246.33 18.855 246.66 19.875 247 C18.23122457 237.65643442 15.83328342 230.58773091 7.875 225 C0.99478304 222.70659435 -7.4950023 223.0416608 -12.6796875 228.6953125 Z M39.625 243 C35.19644178 249.23707938 33.76593779 254.35874936 34.875 262 C36.43587354 267.80812098 38.47658285 273.48861137 40.875 279 C41.535 279.33 42.195 279.66 42.875 280 C43.34808594 278.96101563 43.82117188 277.92203125 44.30859375 276.8515625 C50.93337293 262.7070391 58.97457362 251.80536205 73.9609375 245.75390625 C79.51447477 243.84444067 85.15481838 242.32004191 90.875 241 C87.10334959 237.70070049 83.43027761 235.73369304 78.8125 233.8125 C77.60464844 233.30332031 76.39679688 232.79414063 75.15234375 232.26953125 C61.47078076 226.96976013 48.50618786 231.69667 39.625 243 Z M-86.125 238 C-86.455 238.66 -86.785 239.32 -87.125 240 C-84.43815556 240.7301167 -81.88719007 241.17662615 -79.11328125 241.39453125 C-65.27089027 242.60651737 -55.76238858 245.06667445 -46.3984375 256.01953125 C-43.46126936 259.80312469 -41.09821696 263.61507342 -39.125 268 C-38.465 267.67 -37.805 267.34 -37.125 267 C-36.40394109 256.46452816 -38.65448341 248.15839203 -45.28125 239.82421875 C-51.96270315 233.21354371 -59.67023257 230.48289252 -68.890625 230.5078125 C-75.17902672 231.4647432 -80.76995229 234.66629424 -86.125 238 Z M-121.125 262 C-121.455 262.66 -121.785 263.32 -122.125 264 C-121.05185547 264.16435547 -121.05185547 264.16435547 -119.95703125 264.33203125 C-116.67323432 264.85455004 -113.39942988 265.42172611 -110.125 266 C-109.09246094 266.17144531 -108.05992187 266.34289062 -106.99609375 266.51953125 C-94.11764503 269.01785359 -81.83671418 275.15405879 -72.125 284 C-71.35671875 284.68835938 -70.5884375 285.37671875 -69.796875 286.0859375 C-59.37995229 295.91647715 -55.66657296 306.49187657 -52.125 320 C-49.95417677 317.82917677 -49.63634316 316.85781297 -48.87109375 313.96484375 C-48.54915039 312.74958008 -48.54915039 312.74958008 -48.22070312 311.50976562 C-48.00349609 310.66091797 -47.78628906 309.81207031 -47.5625 308.9375 C-47.34142578 308.11572266 -47.12035156 307.29394531 -46.89257812 306.44726562 C-43.57653135 293.71404674 -42.93409262 281.32752104 -49.51171875 269.4140625 C-57.01759335 258.18251164 -65.85575082 250.89063598 -79.125 248 C-95.56324451 246.1012509 -108.24717638 252.527728 -121.125 262 Z M61.875 263 C54.5458208 271.80017644 47.87684368 281.25289172 46.875 293 C47.41192992 297.82468837 48.43343456 302.19972251 49.94140625 306.80859375 C50.34423828 308.04931641 50.74707031 309.29003906 51.16210938 310.56835938 C51.5871143 311.85811421 52.01224606 313.14782725 52.4375 314.4375 C52.8670636 315.75438546 53.29610484 317.07144142 53.72460938 318.38867188 C54.76962197 321.59415995 55.81989911 324.79782127 56.875 328 C57.205 328 57.535 328 57.875 328 C58.09414063 327.12859375 58.31328125 326.2571875 58.5390625 325.359375 C62.64772746 309.92682855 69.20838195 297.13329444 81.875 287 C81.875 286.34 81.875 285.68 81.875 285 C82.40222656 284.74992187 82.92945313 284.49984375 83.47265625 284.2421875 C85.89615231 282.98906271 88.20965498 281.59650672 90.54150391 280.18212891 C104.09367223 272.09267635 117.35161482 270.17624853 132.875 269 C128.66829656 264.36578604 123.9085725 261.19066913 118.625 257.875 C117.81675781 257.35035156 117.00851562 256.82570313 116.17578125 256.28515625 C98.9004395 245.36714026 76.27107329 247.35528771 61.875 263 Z M-22.28125 260.1328125 C-24.65821278 263.82919107 -25.77656036 267.47596821 -26.9375 271.6875 C-27.16630859 272.45900391 -27.39511719 273.23050781 -27.63085938 274.02539062 C-29.0348356 278.05596975 -29.0348356 278.05596975 -28.125 282 C-27.37734375 281.65066406 -26.6296875 281.30132812 -25.859375 280.94140625 C-24.38210937 280.25884766 -24.38210937 280.25884766 -22.875 279.5625 C-21.90046875 279.11003906 -20.9259375 278.65757812 -19.921875 278.19140625 C-9.04907113 273.55983477 6.10166341 274.73513628 16.96875 278.65625 C23.46593889 281.66032658 29.19490666 285.6841785 34.875 290 C31.36939324 277.11760769 27.38843792 264.21588578 15.62109375 256.52734375 C4.09512245 250.6051596 -12.56727271 250.52442192 -22.28125 260.1328125 Z M-31.125 294 C-31.77629883 294.56686523 -32.42759766 295.13373047 -33.09863281 295.71777344 C-35.50549567 298.42853898 -36.2457414 300.61052076 -37.265625 304.078125 C-37.61367187 305.23828125 -37.96171875 306.3984375 -38.3203125 307.59375 C-38.66835937 308.8003125 -39.01640625 310.006875 -39.375 311.25 C-39.73851562 312.47203125 -40.10203125 313.6940625 -40.4765625 314.953125 C-41.37087929 317.96556049 -42.25318046 320.98099172 -43.125 324 C-39.99599515 322.78408867 -37.35552354 321.57360089 -34.625 319.625 C-18.46875099 309.44476131 5.05119946 309.26613772 23.1875 313.1875 C32.03572785 315.65201999 39.60586435 320.50776417 46.875 326 C43.21585016 310.62515113 32.73042034 298.98601453 20.03515625 289.91796875 C4.01389386 280.19431012 -17.13850422 281.28500384 -31.125 294 Z " fill="#181818" transform="translate(247.125,61)"/>
<path d="M0 0 C0.73154297 0.00451172 1.46308594 0.00902344 2.21679688 0.01367188 C3.99873419 0.02531852 5.78062863 0.04324809 7.5625 0.0625 C5.02143061 2.64627644 2.51448007 4.95394281 -0.4375 7.0625 C-1.4275 6.5675 -1.4275 6.5675 -2.4375 6.0625 C-0.7875 4.7425 0.8625 3.4225 2.5625 2.0625 C-12.61084321 2.30230859 -27.36017642 5.06581018 -39.0625 15.375 C-48.55685529 26.11861257 -50.51598596 35.93161403 -50.4375 50.0625 C-49.63549082 61.93987408 -46.2778332 70.93363197 -37.4375 79.0625 C-33.25991403 82.28678549 -28.86054988 85.18918038 -24.4375 88.0625 C-24.72625 86.97195313 -25.015 85.88140625 -25.3125 84.7578125 C-30.18280353 65.40014414 -30.35563331 46.54890757 -21.5625 28.1875 C-21.23507812 27.49060059 -20.90765625 26.79370117 -20.5703125 26.07568359 C-18.95102853 22.92962358 -18.10305068 21.29063493 -14.6796875 20.1171875 C-13.93976563 20.09914062 -13.19984375 20.08109375 -12.4375 20.0625 C-12.3446875 19.2271875 -12.3446875 19.2271875 -12.25 18.375 C-10.8326948 14.34113135 -7.78089324 11.82496643 -4.125 9.75 C-3.568125 9.523125 -3.01125 9.29625 -2.4375 9.0625 C-3.22447325 12.47271743 -4.30869943 15.75135166 -5.4375 19.0625 C-4.4475 18.19625 -3.4575 17.33 -2.4375 16.4375 C9.35455383 6.38799664 9.35455383 6.38799664 14.5625 6.0625 C12.23769963 7.93733901 9.91595313 9.80312185 7.5078125 11.5703125 C-5.95404204 21.58518698 -14.17618321 34.57131319 -17.4375 51.0625 C-17.82274223 55.05362279 -17.86870964 58.9927348 -17.8125 63 C-17.7961853 64.58312988 -17.7961853 64.58312988 -17.77954102 66.19824219 C-17.48871308 80.39064525 -14.16967664 92.81819685 -3.625 103 C-2.96628906 103.61101562 -2.30757813 104.22203125 -1.62890625 104.8515625 C1.16393876 107.66929918 3.53818004 110.72092563 5.9375 113.875 C6.36651611 114.43888428 6.79553223 115.00276855 7.23754883 115.58374023 C12.5625 122.64931604 12.5625 122.64931604 12.5625 126.0625 C7.42944767 125.48154989 3.47424904 123.80318399 -1.125 121.625 C-16.78782165 114.51108685 -32.15386121 114.4562271 -48.3125 120.4375 C-52.76361756 122.23825224 -56.6386828 124.13198388 -60.4375 127.0625 C-61.4275 126.5675 -61.4275 126.5675 -62.4375 126.0625 C-62.128125 125.464375 -61.81875 124.86625 -61.5 124.25 C-60.33540296 121.97293228 -60.33540296 121.97293228 -59.4375 119.0625 C-58.9425 117.5775 -58.9425 117.5775 -58.4375 116.0625 C-57.4475 116.0625 -56.4575 116.0625 -55.4375 116.0625 C-55.4375 115.0725 -55.4375 114.0825 -55.4375 113.0625 C-43.37471216 108.03793654 -32.42304336 105.92367041 -19.4375 105.0625 C-25.17328692 100.86525357 -31.06302079 96.95601019 -37.125 93.25 C-38.05034546 92.67294312 -38.05034546 92.67294312 -38.99438477 92.08422852 C-47.73037216 86.81466227 -55.48347094 86.56885051 -65.4375 88.0625 C-72.22791118 89.74917871 -77.80902138 92.61466309 -83.46484375 96.6953125 C-85.4375 98.0625 -85.4375 98.0625 -87.56640625 98.9921875 C-89.93651714 100.34795031 -90.3488239 101.59696883 -91.4375 104.0625 C-92.37223639 105.30970542 -93.33204693 106.53840384 -94.3125 107.75 C-99.94172002 115.16409466 -103.75494248 124.13690705 -103.25 133.5625 C-102.41539883 137.15770504 -101.29220227 140.51113588 -99.9609375 143.94921875 C-99.36308258 146.36294647 -99.64890504 147.73351622 -100.4375 150.0625 C-104.2292814 140.66429895 -107.443356 132.26619713 -104.375 122.1875 C-103.46666104 119.15970347 -103.28825186 117.93562035 -104.4375 115.0625 C-106.4175 115.5575 -106.4175 115.5575 -108.4375 116.0625 C-104.23282404 102.35160012 -95.63136834 91.35046352 -83.10546875 84.33984375 C-75.70169444 80.79513775 -66.71336158 77.47079678 -58.4375 77.0625 C-57.4475 77.7225 -56.4575 78.3825 -55.4375 79.0625 C-55.4375 78.0725 -55.4375 77.0825 -55.4375 76.0625 C-53.4575 75.5675 -53.4575 75.5675 -51.4375 75.0625 C-51.870625 74.629375 -52.30375 74.19625 -52.75 73.75 C-53.306875 73.193125 -53.86375 72.63625 -54.4375 72.0625 C-54.994375 71.588125 -55.55125 71.11375 -56.125 70.625 C-57.4375 69.0625 -57.4375 69.0625 -57.4375 65.0625 C-57.746875 63.928125 -58.05625 62.79375 -58.375 61.625 C-62.12083833 47.04587383 -60.76107956 32.24494321 -53.4375 19.0625 C-52.17897614 16.97844923 -50.87403998 15.03109182 -49.4375 13.0625 C-46.9625 14.5475 -46.9625 14.5475 -44.4375 16.0625 C-44.1075 15.0725 -43.7775 14.0825 -43.4375 13.0625 C-42.9425 14.0525 -42.9425 14.0525 -42.4375 15.0625 C-41.9528125 14.60359375 -41.468125 14.1446875 -40.96875 13.671875 C-29.39201524 3.07471011 -15.50059788 -0.1843621 0 0 Z " fill="#1D1D1D" transform="translate(398.4375,223.9375)"/>
<path d="M0 0 C0.94875 0.804375 1.8975 1.60875 2.875 2.4375 C3.52339844 2.98535156 4.17179687 3.53320312 4.83984375 4.09765625 C6.31097371 5.39320831 7.74023675 6.73752029 9.12890625 8.12109375 C23.38518517 22.03966048 40.84297562 26.51494946 60.37695312 26.35205078 C71.47305307 26.05909111 81.05963594 23.93853682 90 17 C91.00341259 15.66923295 92.0041614 14.33644426 93 13 C93.66 13 94.32 13 95 13 C95 12.34 95 11.68 95 11 C95.66 11 96.32 11 97 11 C97.226875 10.443125 97.45375 9.88625 97.6875 9.3125 C99.91150126 5.3940216 102.39629275 2.51027049 106.75 1.125 C107.4925 1.08375 108.235 1.0425 109 1 C110 2 110 2 110.20629883 4.67651367 C109.9798567 8.32450982 109.12202548 10.81818573 107.69921875 14.17578125 C107.21646484 15.33400391 106.73371094 16.49222656 106.23632812 17.68554688 C105.72521484 18.88244141 105.21410156 20.07933594 104.6875 21.3125 C97.92616287 36.16224741 97.92616287 36.16224741 95.5 52.0625 C95.50644531 52.78856445 95.51289063 53.51462891 95.51953125 54.26269531 C95.92756184 66.67004644 100.45066445 77.11304701 107.23046875 87.328125 C108.67813 89.51399762 109.89863379 91.62782663 111 94 C109.02 93.01 109.02 93.01 107 92 C107 92.66 107 93.32 107 94 C105.68 94.33 104.36 94.66 103 95 C107.60136502 100.53601728 112.46398272 105.39863498 118 110 C117.01 110.495 117.01 110.495 116 111 C99.33663625 99.9313405 90.67541142 82.34842091 86.3984375 63.32421875 C85.79150839 58.26052588 85.89672039 53.21931444 85.9375 48.125 C85.94201172 47.05507812 85.94652344 45.98515625 85.95117188 44.8828125 C85.96290251 42.25515014 85.97931772 39.62760462 86 37 C81.73377585 41.00036978 78.23375941 44.66013385 75.5625 49.9375 C75.06878906 50.89527344 74.57507813 51.85304687 74.06640625 52.83984375 C73.53853516 53.90912109 73.53853516 53.90912109 73 55 C72.328125 53.28515625 72.328125 53.28515625 72 51 C73.109375 48.74609375 73.109375 48.74609375 74.75 46.4375 C75.28109375 45.67308594 75.8121875 44.90867188 76.359375 44.12109375 C78 42 78 42 79.703125 40.34765625 C81.23113361 39.07153443 81.23113361 39.07153443 81 37 C80.01 37 79.02 37 78 37 C78 35.68 78 34.36 78 33 C77.34 33 76.68 33 76 33 C76 33.66 76 34.32 76 35 C75.34 35 74.68 35 74 35 C73.34 36.32 72.68 37.64 72 39 C71.01 39 70.02 39 69 39 C69.99 38.01 69.99 38.01 71 37 C70.26587891 36.9906543 69.53175781 36.98130859 68.77539062 36.97167969 C43.62265976 36.57005499 20.07885524 34.01123401 1.47265625 15.55859375 C0.65667969 14.71425781 -0.15929687 13.86992188 -1 13 C-2.24946914 11.81194145 -3.49934815 10.62431347 -4.75 9.4375 C-7 7 -7 7 -7 5 C-7.66 5 -8.32 5 -9 5 C-8.67 4.01 -8.34 3.02 -8 2 C-6.82244141 3.30324219 -6.82244141 3.30324219 -5.62109375 4.6328125 C5.64138579 17.03268029 16.20050873 24.97529127 32 31 C32 30.34 32 29.68 32 29 C31.34 28.67 30.68 28.34 30 28 C30 26.68 30 25.36 30 24 C28.88625 23.649375 27.7725 23.29875 26.625 22.9375 C18.1835061 19.70899883 11.71074967 13.96597629 5.375 7.6875 C4.84165039 7.15970947 4.30830078 6.63191895 3.75878906 6.08813477 C0 2.2570613 0 2.2570613 0 0 Z " fill="#171717" transform="translate(261,102)"/>
<path d="M0 0 C0.69738281 0.00451172 1.39476562 0.00902344 2.11328125 0.01367188 C3.82555803 0.0253998 5.53779033 0.04333347 7.25 0.0625 C7.25 0.3925 7.25 0.7225 7.25 1.0625 C5.94289063 1.08376953 5.94289063 1.08376953 4.609375 1.10546875 C-4.07640328 1.45327589 -13.79773586 2.33111149 -20.4140625 8.65234375 C-22.45692527 12.33785934 -23.38688914 16.24971482 -24.4375 20.3125 C-24.77491211 21.57320313 -24.77491211 21.57320313 -25.11914062 22.859375 C-25.67074756 24.92496693 -26.21145467 26.9934642 -26.75 29.0625 C-26.00234375 28.71316406 -25.2546875 28.36382812 -24.484375 28.00390625 C-23.00710937 27.32134766 -23.00710937 27.32134766 -21.5 26.625 C-20.52546875 26.17253906 -19.5509375 25.72007812 -18.546875 25.25390625 C-7.6728181 20.62180101 7.4693643 21.80147115 18.33984375 25.71484375 C23.30821974 28.01563531 27.78831206 30.90667194 32.25 34.0625 C33.24 34.7225 34.23 35.3825 35.25 36.0625 C34.92 34.4125 34.59 32.7625 34.25 31.0625 C34.91 31.3925 35.57 31.7225 36.25 32.0625 C36.84355614 34.71110427 36.99209269 37.35447322 37.25 40.0625 C36.486875 39.5675 35.72375 39.0725 34.9375 38.5625 C32.32636249 36.81881692 32.32636249 36.81881692 29.25 37.0625 C28.14163577 38.94566159 28.14163577 38.94566159 27.25 41.0625 C27.58 41.7225 27.91 42.3825 28.25 43.0625 C25.54866223 41.77416968 23.14356528 40.3278012 20.6875 38.625 C11.38349964 32.84420566 0.99168564 32.01645103 -9.75 33.0625 C-13.91050762 34.06611056 -17.7998135 35.42752855 -21.75 37.0625 C-22.68585938 37.43632812 -23.62171875 37.81015625 -24.5859375 38.1953125 C-25.30007812 38.48148437 -26.01421875 38.76765625 -26.75 39.0625 C-25.5641763 35.68746331 -24.47426311 33.41527269 -21.75 31.0625 C-25.87973628 31.62989868 -25.87973628 31.62989868 -29.75 33.0625 C-29.16677505 27.46228626 -28.18666831 22.26311393 -26.5625 16.875 C-26.37880859 16.18986328 -26.19511719 15.50472656 -26.00585938 14.79882812 C-24.04548152 8.29137575 -20.54435046 5.62733626 -14.625 2.3125 C-9.6656652 0.15626748 -5.37823873 -0.06608422 0 0 Z " fill="#2A2A2A" transform="translate(245.75,312.9375)"/>
<path d="M0 0 C2.27292941 1.01889939 3.83024561 1.80902631 5.5 3.6875 C5.995 4.120625 6.49 4.55375 7 5 C9.16299211 4.77242269 9.16299211 4.77242269 11 4 C11 3.01 11 2.02 11 1 C18.04745086 7.04067217 22.07048277 15.80956199 23 25 C23.42240014 34.18495616 23.45906966 43.0639165 21 52 C22.65 50.68 24.3 49.36 26 48 C24.44396229 51.81936528 22.04395069 54.26044438 19 57 C18.34 57 17.68 57 17 57 C16.67 55.68 16.34 54.36 16 53 C14.35 53.66 12.7 54.32 11 55 C11.13277344 54.35933594 11.26554688 53.71867187 11.40234375 53.05859375 C14.18053438 39.45154328 16.13568596 24.84802888 8.94335938 12.13183594 C6.54665485 8.54075378 3.80080017 5.28369675 1 2 C0.67 1.34 0.34 0.68 0 0 Z " fill="#313131" transform="translate(139,236)"/>
<path d="M0 0 C0 0.33 0 0.66 0 1 C-1.86591797 1.43699219 -1.86591797 1.43699219 -3.76953125 1.8828125 C-16.37843928 4.94474051 -30.02966029 8.44251308 -37.875 19.6875 C-39.14582191 21.87114002 -39.14582191 21.87114002 -39 24 C-34.95377498 24.36980013 -34.95377498 24.36980013 -32 22 C-33.33797029 24.88619305 -34.87732396 27.21886925 -36.875 29.6875 C-42.50422002 37.10159466 -46.31744248 46.07440705 -45.8125 55.5 C-44.97789883 59.09520504 -43.85470227 62.44863588 -42.5234375 65.88671875 C-41.92558258 68.30044647 -42.21140504 69.67101622 -43 72 C-46.7917814 62.60179895 -50.005856 54.20369713 -46.9375 44.125 C-46.02916104 41.09720347 -45.85075186 39.87312035 -47 37 C-48.98 37.495 -48.98 37.495 -51 38 C-46.79359556 24.28346379 -38.1936083 13.30523732 -25.67578125 6.27734375 C-20.93672403 4.01504928 -16.03875554 2.44855558 -11 1 C-10.19691406 0.76152344 -9.39382813 0.52304687 -8.56640625 0.27734375 C-5.18354721 -0.65992545 -3.39823129 -1.13274376 0 0 Z " fill="#505050" transform="translate(341,302)"/>
<path d="M0 0 C1.21060811 1.81591217 2.39190956 3.65250922 3.515625 5.5234375 C9.00951283 14.71058447 9.00951283 14.71058447 18 20 C25.02359966 20.35856214 32.05968129 20.13775717 39 19 C39.33 18.34 39.66 17.68 40 17 C42.475 17.99 42.475 17.99 45 19 C38.97148787 22.47798777 32.20076166 22.20815461 25.4375 22.25 C24.60025391 22.270625 23.76300781 22.29125 22.90039062 22.3125 C17.95524434 22.34382318 15.16162564 21.90006075 11 19 C7.79320551 19.06129214 7.79320551 19.06129214 5 20 C4.67 20.66 4.34 21.32 4 22 C4.99 22.33 5.98 22.66 7 23 C7 23.66 7 24.32 7 25 C-1.84979963 25.54741029 -9.98880643 25.33187657 -16.98828125 19.28125 C-18.57170271 17.56314672 -19.93329389 16.08031826 -21 14 C-20.67 13.01 -20.34 12.02 -20 11 C-19.46375 11.9075 -18.9275 12.815 -18.375 13.75 C-14.89181362 18.8780244 -10.72271428 21.0129613 -4.75 22.3125 C-1.25645309 23.08069806 -1.25645309 23.08069806 2 22 C1.60167969 21.59910156 1.20335937 21.19820312 0.79296875 20.78515625 C-3.45461733 16.22752739 -5.44706823 12.00739397 -7 6 C-5.35 6.33 -3.7 6.66 -2 7 C0.36980013 4.04622502 0.36980013 4.04622502 0 0 Z " fill="#565656" transform="translate(307,202)"/>
<path d="M0 0 C0.99 0.495 0.99 0.495 2 1 C1.89051894 5.1255669 1.75979775 9.25018878 1.625 13.375 C1.5940625 14.550625 1.563125 15.72625 1.53125 16.9375 C1.49257812 18.05898437 1.45390625 19.18046875 1.4140625 20.3359375 C1.36693115 21.89127197 1.36693115 21.89127197 1.31884766 23.47802734 C1 26 1 26 -1 28 C-1 21.4 -1 14.8 -1 8 C-2.134375 9.44375 -3.26875 10.8875 -4.4375 12.375 C-5.95470408 14.25293792 -7.47567259 16.12783949 -9 18 C-9.68578125 18.86109375 -10.3715625 19.7221875 -11.078125 20.609375 C-23.49334672 35.41567646 -41.31093723 41.84856784 -60 44 C-63.37724012 44.25135075 -66.62394297 44.22981263 -70 44 C-71.03253906 43.94585937 -72.06507813 43.89171875 -73.12890625 43.8359375 C-82.13954266 43.25040878 -82.13954266 43.25040878 -86 41 C-86 40.34 -86 39.68 -86 39 C-85.46197754 39.14074951 -84.92395508 39.28149902 -84.36962891 39.42651367 C-64.22561421 44.34651037 -43.58383188 40.66761561 -26 30 C-17.6122559 24.79793878 -17.6122559 24.79793878 -12 17 C-10.33333333 15.33333333 -8.66666667 13.66666667 -7 12 C-3.97705986 8.24291726 -1.53777508 4.61332525 0 0 Z " fill="#808080" transform="translate(243,95)"/>
<path d="M0 0 C0.66 0.66 1.32 1.32 2 2 C1.21496094 1.96519531 0.42992187 1.93039062 -0.37890625 1.89453125 C-9.19000822 1.5550396 -9.19000822 1.5550396 -17 5 C-20.31418582 10.14378367 -21.70929051 16.08424815 -23 22 C-22.35675781 21.7834375 -21.71351563 21.566875 -21.05078125 21.34375 C-9.51928384 17.79053539 2.01475588 17.50737794 13 23 C11.33957654 15.20766181 8.83908787 9.34249381 4 3 C9.54935907 5.34463366 11.73048617 9.96727251 13.984375 15.3515625 C15.42055449 19.40267258 16.1440434 22.67111686 16 27 C15.35417969 26.6390625 14.70835937 26.278125 14.04296875 25.90625 C2.07009748 20.00989753 -11.66383548 20.21455002 -24.26171875 24.34375 C-24.83535156 24.5603125 -25.40898437 24.776875 -26 25 C-22.0356373 5.56861618 -22.0356373 5.56861618 -16.5625 0.9375 C-11.11458995 -0.49616054 -5.59776017 -0.5953419 0 0 Z " fill="#C8C8C8" transform="translate(253,284)"/>
<path d="M0 0 C-0.47050781 0.70125 -0.94101562 1.4025 -1.42578125 2.125 C-10.16517312 15.44216856 -11.60123688 26.06742409 -9 42 C-10.6975594 41.41646396 -12.35544725 40.71949183 -14 40 C-14.92425781 39.60941406 -14.92425781 39.60941406 -15.8671875 39.2109375 C-22.98918045 35.58066094 -26.15508759 29.245502 -29 22 C-30.06156105 17.12548495 -29.57203401 14.12288158 -27.3125 9.6875 C-19.88183406 1.0518612 -11.04252126 -0.6343576 0 0 Z M-26 10 C-28.02130602 14.04261205 -27.57096564 18.61520561 -27 23 C-24.55447776 29.92145963 -21.20017733 34.74680197 -14.734375 38.29296875 C-13.00348824 39.12583188 -13.00348824 39.12583188 -11 39 C-11.02094727 38.41621582 -11.04189453 37.83243164 -11.06347656 37.23095703 C-11.78200241 14.19720121 -11.78200241 14.19720121 -5.36328125 5.87890625 C-3.80424305 4.11710053 -3.80424305 4.11710053 -4 2 C-12.22752055 1.28456343 -20.03449407 4.22692975 -26 10 Z " fill="#8D8D8D" transform="translate(320,232)"/>
<path d="M0 0 C0.33 0.66 0.66 1.32 1 2 C0.109375 4.14453125 0.109375 4.14453125 -1.25 6.8125 C-6.02614832 17.14973467 -7.257648 26.41856155 -7.3125 37.6875 C-7.31805908 38.64946289 -7.32361816 39.61142578 -7.3293457 40.60253906 C-7.25361373 48.14984534 -6.32384315 55.23749842 -3.8125 62.375 C-2.93304744 65.21630828 -3.17193337 66.23977791 -4 69 C-11.594442 64.16834147 -18.46357242 59.20630497 -25 53 C-24.67 52.34 -24.34 51.68 -24 51 C-23.53851563 51.42410156 -23.07703125 51.84820312 -22.6015625 52.28515625 C-17.36330813 56.99544427 -11.83788873 61.06421026 -6 65 C-6.28875 63.90945313 -6.5775 62.81890625 -6.875 61.6953125 C-12.37726097 39.82584535 -11.19235485 19.90092684 0 0 Z " fill="#AAAAAA" transform="translate(380,247)"/>
<path d="M0 0 C-3.6013841 1.20046137 -4.14967034 0.73287623 -7.4375 -0.875 C-15.12458408 -4.59497639 -20.99339307 -4.79737072 -29.125 -2.25 C-37.9856326 0.92395795 -42.73153452 6.35446872 -47.375 14.375 C-49.7844514 24.49469588 -46.32902939 32.79929985 -42.66430664 42.14404297 C-41.97315576 44.07499814 -41.46577606 46.00381689 -41 48 C-41.66 48 -42.32 48 -43 48 C-44.35787413 44.52992738 -45.68161855 41.04774826 -47 37.5625 C-47.3815625 36.58861328 -47.763125 35.61472656 -48.15625 34.61132812 C-50.91239159 27.25341441 -52.68902155 20.56316459 -49.5625 13.0625 C-44.59954382 4.31156313 -37.87483686 -2.61769641 -28.140625 -5.5625 C-17.45901043 -7.74560371 -9.35790137 -5.14607997 0 0 Z " fill="#9A9A9A" transform="translate(331,296)"/>
<path d="M0 0 C2.58445988 2.55186309 5.10235903 5.11223441 7.55078125 7.796875 C17.51055702 18.58104553 29.79821315 26.03314287 44 30 C45.16015625 30.33451172 45.16015625 30.33451172 46.34375 30.67578125 C58.57097848 33.51977269 72.64107555 32.81535318 85 31 C85 31.66 85 32.32 85 33 C84.34 33 83.68 33 83 33 C82.34 34.32 81.68 35.64 81 37 C80.01 37 79.02 37 78 37 C78.99 36.01 78.99 36.01 80 35 C79.26587891 34.9906543 78.53175781 34.98130859 77.77539062 34.97167969 C52.62265976 34.57005499 29.07885524 32.01123401 10.47265625 13.55859375 C9.65667969 12.71425781 8.84070313 11.86992188 8 11 C6.75053086 9.81194145 5.50065185 8.62431347 4.25 7.4375 C2 5 2 5 2 3 C1.34 3 0.68 3 0 3 C0 2.01 0 1.02 0 0 Z " fill="#B1B1B1" transform="translate(252,104)"/>
<path d="M0 0 C-0.495 -1.98 -0.495 -1.98 -1 -4 C1 -2.1875 1 -2.1875 3 0 C3 0.99 3 1.98 3 3 C-2.13305233 2.41904989 -6.08825096 0.74068399 -10.6875 -1.4375 C-26.35032165 -8.55141315 -41.71636121 -8.6062729 -57.875 -2.625 C-62.32611756 -0.82424776 -66.2011828 1.06948388 -70 4 C-70.66 3.67 -71.32 3.34 -72 3 C-48.72401783 -13.50778878 -25.1927558 -11.25830113 0 0 Z " fill="#8F8F8F" transform="translate(408,347)"/>
<path d="M0 0 C1.67542976 0.28604898 3.34385343 0.61781233 5 1 C5.38281159 6.23175837 4.21854707 9.37802694 2 14 C1.67 14 1.34 14 1 14 C0.505 11.03 0.505 11.03 0 8 C-4.31321986 8.48828904 -6.47451255 11.07425389 -9.5 14 C-15.26760563 19.57746479 -15.26760563 19.57746479 -19 20 C-19 20.66 -19 21.32 -19 22 C-23.62197306 24.21854707 -26.76824163 25.38281159 -32 25 C-29.72549712 23.8463459 -27.43944212 22.740285 -25.125 21.66796875 C-24.09375 21.17941406 -23.0625 20.69085938 -22 20.1875 C-20.96875 19.70667969 -19.9375 19.22585937 -18.875 18.73046875 C-15.76870058 16.86078038 -14.17406157 14.85830863 -12 12 C-11.34 12 -10.68 12 -10 12 C-10 11.34 -10 10.68 -10 10 C-9.34 10 -8.68 10 -8 10 C-7.773125 9.443125 -7.54625 8.88625 -7.3125 8.3125 C-5.63848923 5.36305245 -3.45043651 3.3247731 -1 1 C-0.67 0.67 -0.34 0.34 0 0 Z " fill="#8F8F8F" transform="translate(366,103)"/>
<path d="M0 0 C-2.54106939 2.58377644 -5.04801993 4.89144281 -8 7 C-8.66 6.67 -9.32 6.34 -10 6 C-8.35 4.68 -6.7 3.36 -5 2 C-20.17334321 2.23980859 -34.92267642 5.00331018 -46.625 15.3125 C-49.63739914 18.72126745 -52.33822806 22.31376601 -55 26 C-55.33 25.01 -55.66 24.02 -56 23 C-48.91425118 11.27116791 -38.16679908 4.66602204 -25.125 1.24609375 C-16.79425116 -0.37251642 -8.44523967 -0.19291157 0 0 Z " fill="#8B8B8B" transform="translate(406,224)"/>
<path d="M0 0 C1.423125 1.2065625 1.423125 1.2065625 2.875 2.4375 C3.52339844 2.98535156 4.17179687 3.53320312 4.83984375 4.09765625 C6.31097371 5.39320831 7.74023675 6.73752029 9.12890625 8.12109375 C25.66956284 24.2699243 45.84885562 26.42608687 68 27 C68 27.33 68 27.66 68 28 C63.87501532 28.02938023 59.75005809 28.04692535 55.625 28.0625 C54.46871094 28.07087891 53.31242187 28.07925781 52.12109375 28.08789062 C36.23256709 28.13277347 36.23256709 28.13277347 32 27 C31.34 26.01 30.68 25.02 30 24 C28.11002222 23.32500794 26.21979027 22.65071706 24.328125 21.98046875 C16.88656278 18.84652225 11.03579711 13.29712511 5.375 7.6875 C4.84165039 7.15970947 4.30830078 6.63191895 3.75878906 6.08813477 C0 2.2570613 0 2.2570613 0 0 Z " fill="#B9B9B9" transform="translate(261,102)"/>
<path d="M0 0 C2.6800732 7.77965693 -1.81713476 17.14001944 -5.125 24.125 C-11.12314893 35.50123605 -19.92768069 46.24858579 -31 53 C-31.66 52.67 -32.32 52.34 -33 52 C-30.92652146 48.88978218 -30.20333808 48.48403233 -27 47 C-11.42631124 35.39607504 -4.83539184 18.05783501 0 0 Z " fill="#848484" transform="translate(149,162)"/>
<path d="M0 0 C0.66 0.33 1.32 0.66 2 1 C1.89051894 5.1255669 1.75979775 9.25018878 1.625 13.375 C1.57859375 15.1384375 1.57859375 15.1384375 1.53125 16.9375 C1.49257812 18.05898437 1.45390625 19.18046875 1.4140625 20.3359375 C1.3826416 21.37282715 1.3512207 22.4097168 1.31884766 23.47802734 C1 26 1 26 -1 28 C-1 21.4 -1 14.8 -1 8 C-2.134375 9.44375 -3.26875 10.8875 -4.4375 12.375 C-18.1478769 29.42229403 -18.1478769 29.42229403 -26 33 C-26.66 33 -27.32 33 -28 33 C-28 32.34 -28 31.68 -28 31 C-26.20703125 29.6328125 -26.20703125 29.6328125 -23.8125 28.125 C-16.72436482 23.66800073 -16.72436482 23.66800073 -12 17 C-10.33333333 15.33333333 -8.66666667 13.66666667 -7 12 C-3.97705986 8.24291726 -1.53777508 4.61332525 0 0 Z " fill="#8D8D8D" transform="translate(243,95)"/>
<path d="M0 0 C9.27048414 -0.57940526 16.96329954 2.99534894 24 9 C30.6341628 17.32028018 30.59950347 25.7984493 30 36 C29.28770297 39.00241481 28.38527699 41.22944601 27 44 C26.34 44 25.68 44 25 44 C25.2165625 43.39414062 25.433125 42.78828125 25.65625 42.1640625 C28.95103461 32.2492014 29.00206459 23.74415726 25 14 C22.03551747 8.86916486 17.32967389 6.29819831 12 4 C9.59922116 3.39980529 7.48201817 3.15842669 5 3 C4.67 3.66 4.34 4.32 4 5 C2.68 3.35 1.36 1.7 0 0 Z " fill="#B3B3B3" transform="translate(145,232)"/>
<path d="M0 0 C0.94875 0.86625 1.8975 1.7325 2.875 2.625 C11.03566443 9.59625585 19.70709664 14.50512007 30.66015625 14.26171875 C37.294686 13.51962611 44.45288931 11.00182176 49 6 C49.99 7.32 50.98 8.64 52 10 C51.34 10.66 50.68 11.32 50 12 C49.34 11.67 48.68 11.34 48 11 C46.26924271 11.76356939 44.56514891 12.58782024 42.875 13.4375 C34.5656872 17.00291426 25.87119818 17.65821678 17.109375 15.18359375 C10.5285619 12.2139501 4.87148448 7.27571405 0 2 C0 1.34 0 0.68 0 0 Z " fill="#A6A6A6" transform="translate(256,163)"/>
<path d="M0 0 C4.36115985 2.04707503 7.57051201 4.44694419 11.0625 7.75 C19.0543638 15.07245982 29.0525369 19.88380837 39 24 C36.74359919 24.76898639 35.44525558 25.14431857 33.14404297 24.3984375 C32.51643066 24.06070313 31.88881836 23.72296875 31.2421875 23.375 C30.53876221 23.00157471 29.83533691 22.62814941 29.1105957 22.2434082 C28.00397583 21.62792114 28.00397583 21.62792114 26.875 21 C26.11598389 20.58645264 25.35696777 20.17290527 24.57495117 19.74682617 C16.07217424 15.04441612 8.78665247 9.95218057 2 3 C1.01 2.67 0.02 2.34 -1 2 C-0.67 4.64 -0.34 7.28 0 10 C-1.5625 8.3125 -1.5625 8.3125 -3 6 C-2.8125 3.3125 -2.8125 3.3125 -2 1 C-1.34 0.67 -0.68 0.34 0 0 Z " fill="#C3C3C3" transform="translate(123,101)"/>
<path d="M0 0 C0.03738281 1.19496094 0.07476562 2.38992187 0.11328125 3.62109375 C0.44680463 15.63904823 0.44680463 15.63904823 4 27 C4.44730469 27.98613281 4.89460938 28.97226563 5.35546875 29.98828125 C8.02663861 35.61215816 10.71943486 40.46763691 15 45 C14.67 45.66 14.34 46.32 14 47 C2.65234655 34.52148074 -1.10921132 21.59415856 -3 5 C-4.65 6.32 -6.3 7.64 -8 9 C-6.78641212 6.02119338 -3.58154637 0 0 0 Z " fill="#BEBEBE" transform="translate(322,164)"/>
<path d="M0 0 C0.66 0.33 1.32 0.66 2 1 C-0.31 2.32 -2.62 3.64 -5 5 C8.09036807 7.09219706 21.46503404 5.06100409 34 1 C34 1.66 34 2.32 34 3 C20.43349646 9.15358283 3.54347137 9.26154459 -11 7 C-11 6.34 -11 5.68 -11 5 C-9.21289414 4.13633178 -7.4201535 3.28431406 -5.625 2.4375 C-4.62726563 1.96183594 -3.62953125 1.48617187 -2.6015625 0.99609375 C-1.74304688 0.66738281 -0.88453125 0.33867187 0 0 Z " fill="#B1B1B1" transform="translate(114,215)"/>
<path d="M0 0 C0.69738281 0.00451172 1.39476562 0.00902344 2.11328125 0.01367188 C3.82555803 0.0253998 5.53779033 0.04333347 7.25 0.0625 C7.25 0.3925 7.25 0.7225 7.25 1.0625 C5.94289063 1.08376953 5.94289063 1.08376953 4.609375 1.10546875 C-4.07640328 1.45327589 -13.79773586 2.33111149 -20.4140625 8.65234375 C-22.45692527 12.33785934 -23.38688914 16.24971482 -24.4375 20.3125 C-24.77491211 21.57320313 -24.77491211 21.57320313 -25.11914062 22.859375 C-25.67074756 24.92496693 -26.21145467 26.9934642 -26.75 29.0625 C-26.09 29.3925 -25.43 29.7225 -24.75 30.0625 C-26.4 31.0525 -28.05 32.0425 -29.75 33.0625 C-29.16677505 27.46228626 -28.18666831 22.26311393 -26.5625 16.875 C-26.37880859 16.18986328 -26.19511719 15.50472656 -26.00585938 14.79882812 C-24.04548152 8.29137575 -20.54435046 5.62733626 -14.625 2.3125 C-9.6656652 0.15626748 -5.37823873 -0.06608422 0 0 Z " fill="#7F7F7F" transform="translate(245.75,312.9375)"/>
<path d="M0 0 C4.81740751 5.47432671 5.3302728 12.03194049 5.25 19.0625 C5.25773438 19.74376953 5.26546875 20.42503906 5.2734375 21.12695312 C5.25680195 25.4563543 4.58151136 28.97718736 3 33 C4.670625 31.9790625 4.670625 31.9790625 6.375 30.9375 C8.2734375 29.77734375 8.2734375 29.77734375 10 29 C10.66 29.33 11.32 29.66 12 30 C10.3790787 31.17232685 8.75313167 32.3377077 7.125 33.5 C5.76761719 34.47453125 5.76761719 34.47453125 4.3828125 35.46875 C2 37 2 37 0 37 C0.32484375 35.86691406 0.6496875 34.73382813 0.984375 33.56640625 C2.12731256 28.97951107 2.29792458 24.64609029 2.25 19.9375 C2.25773438 19.17373047 2.26546875 18.40996094 2.2734375 17.62304688 C2.25671424 12.73567281 1.45057672 8.70286181 0 4 C0 2.68 0 1.36 0 0 Z " fill="#878787" transform="translate(177,242)"/>
<path d="M0 0 C2.14703938 -0.02344661 4.2945093 0.00107852 6.44140625 0.03515625 C5.12140625 1.35515625 3.80140625 2.67515625 2.44140625 4.03515625 C2.44140625 3.37515625 2.44140625 2.71515625 2.44140625 2.03515625 C-11.65071777 3.11746672 -19.12663355 9.01505996 -28.55859375 19.03515625 C-29.55519819 20.03854032 -30.55399612 21.03977511 -31.55859375 22.03515625 C-28.93041252 12.69051188 -19.63444376 5.60918994 -11.55859375 1.03515625 C-7.66569284 -0.14161935 -4.02265985 0.05527319 0 0 Z " fill="#878787" transform="translate(350.55859375,228.96484375)"/>
<path d="M0 0 C1 3 1 3 -0.15234375 5.41796875 C-4.19334366 11.6872662 -8.4700894 16.98717195 -14 22 C-14.66 21.67 -15.32 21.34 -16 21 C-15.814375 20.38125 -15.62875 19.7625 -15.4375 19.125 C-14.76313824 16.95839822 -14.76313824 16.95839822 -16 15 C-14.37660195 13.29115995 -12.70680947 11.62553283 -11 10 C-10.34 10 -9.68 10 -9 10 C-6.98944401 9.86249137 -6.98944401 9.86249137 -5 9 C-3.43526659 6.93297415 -3.43526659 6.93297415 -2.25 4.4375 C-1.82203125 3.61121094 -1.3940625 2.78492188 -0.953125 1.93359375 C-0.48132813 0.97646484 -0.48132813 0.97646484 0 0 Z " fill="#373737" transform="translate(174,196)"/>
<path d="M0 0 C1.59038086 0.17112305 1.59038086 0.17112305 3.21289062 0.34570312 C11.72851565 1.38060635 19.35449069 3.28675247 25.75 9.3125 C26.39582031 9.91191406 27.04164063 10.51132812 27.70703125 11.12890625 C31.86157661 15.17091313 31.86157661 15.17091313 33.4375 16.8125 C33.1075 17.4725 32.7775 18.1325 32.4375 18.8125 C31.84324219 18.14863281 31.24898437 17.48476563 30.63671875 16.80078125 C29.80785156 15.91777344 28.97898438 15.03476562 28.125 14.125 C27.32449219 13.25488281 26.52398437 12.38476562 25.69921875 11.48828125 C17.87819316 4.39824126 8.4159794 2.99430363 -1.75 2.5 C-3.46413086 2.39075195 -3.46413086 2.39075195 -5.21289062 2.27929688 C-7.99554147 2.10465352 -10.77778194 1.9494113 -13.5625 1.8125 C-13.5625 1.1525 -13.5625 0.4925 -13.5625 -0.1875 C-9.56285518 -2.18732241 -4.31780997 -0.52980834 0 0 Z " fill="#CACACA" transform="translate(169.5625,301.1875)"/>
<path d="M0 0 C4.55671592 1.51890531 8.31723292 3.95402262 12 7 C12 7.33 12 7.66 12 8 C11.03175293 8.03758423 11.03175293 8.03758423 10.04394531 8.07592773 C7.11244106 8.19214433 4.18123783 8.31475442 1.25 8.4375 C0.23421875 8.47681641 -0.7815625 8.51613281 -1.828125 8.55664062 C-2.8078125 8.59853516 -3.7875 8.64042969 -4.796875 8.68359375 C-5.69760742 8.72025146 -6.59833984 8.75690918 -7.52636719 8.79467773 C-9.80105927 8.98348706 -11.80306753 9.40924818 -14 10 C-15.41534778 10.06456879 -16.83337689 10.08611039 -18.25 10.0625 C-20.10625 10.0315625 -20.10625 10.0315625 -22 10 C-14.0078453 5.57841441 -3.92454065 5.59185435 5 5 C3.35 3.35 1.7 1.7 0 0 Z " fill="#A1A1A1" transform="translate(374,324)"/>
<path d="M0 0 C0 0.33 0 0.66 0 1 C-1.86591797 1.43699219 -1.86591797 1.43699219 -3.76953125 1.8828125 C-19.19813285 5.62359674 -29.6540978 10.89549997 -41 22 C-41 18.25123794 -40.21302166 17.78063632 -37.625 15.1875 C-29.83371476 7.7379378 -21.26638425 3.95140895 -11 1 C-10.19691406 0.76152344 -9.39382813 0.52304687 -8.56640625 0.27734375 C-5.18354721 -0.65992545 -3.39823129 -1.13274376 0 0 Z " fill="#DEDEDE" transform="translate(341,302)"/>
<path d="M0 0 C1.2694043 -0.00483398 1.2694043 -0.00483398 2.56445312 -0.00976562 C8.00078665 0.03634052 12.7166864 0.79755871 17.9375 2.3125 C14.80380511 3.24267325 12.05849541 3.40555945 8.796875 3.33984375 C7.80816406 3.32759766 6.81945312 3.31535156 5.80078125 3.30273438 C3.74081057 3.26784152 1.68090496 3.22884227 -0.37890625 3.18554688 C-6.35190422 3.1196967 -11.33626491 3.61132029 -17.0625 5.3125 C-19.05851306 5.6689309 -21.057345 6.01172675 -23.0625 6.3125 C-16.67812667 0.48328957 -8.24045753 -0.15762161 0 0 Z " fill="#7D7D7D" transform="translate(244.0625,335.6875)"/>
<path d="M0 0 C9.39583367 7.28656488 14.48366126 15.72285302 18 27 C18.391875 28.134375 18.78375 29.26875 19.1875 30.4375 C19.87771578 32.6143344 20.486677 34.77560033 21 37 C20.01 37.66 19.02 38.32 18 39 C17.82984375 38.17757812 17.6596875 37.35515625 17.484375 36.5078125 C14.8481081 24.36415752 11.28619405 12.93821775 2.125 4.0625 C1.42375 3.381875 0.7225 2.70125 0 2 C0 1.34 0 0.68 0 0 Z " fill="#AAAAAA" transform="translate(176,346)"/>
<path d="M0 0 C-0.70125 0.4125 -1.4025 0.825 -2.125 1.25 C-14.88823415 9.01892513 -23.67104197 18.89393463 -29 33 C-29.33 33 -29.66 33 -30 33 C-30.84170601 25.33904873 -24.11926041 17.56086559 -19.625 11.6875 C-6.19298246 -2.06432749 -6.19298246 -2.06432749 0 0 Z " fill="#878787" transform="translate(413,231)"/>
<path d="M0 0 C0.33 0.99 0.66 1.98 1 3 C0.07421875 4.83203125 0.07421875 4.83203125 -1.3125 6.8125 C-8.07748253 16.52383596 -6.83062979 28.78739253 -5 40 C-9.10958767 38.54955729 -12.43258745 36.48889248 -16 34 C-15.67 33.34 -15.34 32.68 -15 32 C-12.36 33.65 -9.72 35.3 -7 37 C-7.33 36.34 -7.66 35.68 -8 35 C-9.2935139 21.7544177 -8.00464506 10.86344687 0 0 Z " fill="#DFDFDF" transform="translate(316,234)"/>
<path d="M0 0 C0 4.151308 -2.23398183 5.88143243 -4.9375 8.75 C-5.43677002 9.28496094 -5.93604004 9.81992188 -6.45043945 10.37109375 C-12.89784567 17.15200418 -21.20680929 25.43390077 -31 26.25 C-31.99 26.12625 -31.99 26.12625 -33 26 C-30.33923635 24.22615757 -27.70725276 22.78511005 -24.875 21.3125 C-14.72004761 15.76130395 -7.50363671 8.66286242 0 0 Z " fill="#C7C7C7" transform="translate(230,101)"/>
<path d="M0 0 C1.96328613 2.9449292 3.51152813 5.91435372 5.125 9.0625 C10.33403061 18.76876822 17.09583756 26.41130303 25 34 C26.00225988 34.997735 27.00307217 35.99693723 28 37 C20.93364748 34.71382713 16.35642176 29.66235685 12 23.875 C11.57211182 23.31095459 11.14422363 22.74690918 10.70336914 22.16577148 C5.60972951 15.31238851 1.11432859 8.60161509 0 0 Z " fill="#D2D2D2" transform="translate(351,176)"/>
<path d="M0 0 C0.66 0.66 1.32 1.32 2 2 C1.21496094 1.96519531 0.42992187 1.93039062 -0.37890625 1.89453125 C-9.19000822 1.5550396 -9.19000822 1.5550396 -17 5 C-18.83911503 7.85439935 -19.95592021 10.77945537 -21 14 C-21.37318359 15.13695312 -21.37318359 15.13695312 -21.75390625 16.296875 C-22.47878519 18.65054503 -22.47878519 18.65054503 -23 22 C-22.34 22.66 -21.68 23.32 -21 24 C-22.65 24.33 -24.3 24.66 -26 25 C-22.0356373 5.56861618 -22.0356373 5.56861618 -16.5625 0.9375 C-11.11458995 -0.49616054 -5.59776017 -0.5953419 0 0 Z " fill="#7B7B7B" transform="translate(253,284)"/>
<path d="M0 0 C0.556875 0.7425 1.11375 1.485 1.6875 2.25 C7.13634351 8.72970579 12.72006191 10.69135395 21 12 C21.66 11.67 22.32 11.34 23 11 C21.68 9.68 20.36 8.36 19 7 C19.33 6.34 19.66 5.68 20 5 C21.33920838 6.11799986 22.67122556 7.24461897 24 8.375 C24.7425 9.00148437 25.485 9.62796875 26.25 10.2734375 C26.8275 10.84320313 27.405 11.41296875 28 12 C28 12.66 28 13.32 28 14 C19.20055656 14.54429547 10.97187853 14.37525311 4.046875 8.28125 C0 3.81834112 0 3.81834112 0 0 Z " fill="#A7A7A7" transform="translate(286,213)"/>
<path d="M0 0 C0.33 0 0.66 0 1 0 C0.89558594 1.32837891 0.89558594 1.32837891 0.7890625 2.68359375 C0.37139962 12.24011821 2.0839872 19.54581162 5.58984375 28.41796875 C6.60869058 31.00600904 7.37852985 33.31997903 8 36 C7.34 36 6.68 36 6 36 C4.64212587 32.52992738 3.31838145 29.04774826 2 25.5625 C1.6184375 24.58861328 1.236875 23.61472656 0.84375 22.61132812 C-1.81293269 15.51893415 -3.43233635 9.38653007 -1 1.9375 C-0.67 1.298125 -0.34 0.65875 0 0 Z " fill="#868686" transform="translate(282,308)"/>
<path d="M0 0 C0.33 0 0.66 0 1 0 C1.38297872 18.34042553 1.38297872 18.34042553 -1 27 C0.65 25.68 2.3 24.36 4 23 C2.44396229 26.81936528 0.04395069 29.26044438 -3 32 C-3.66 32 -4.32 32 -5 32 C-4.69230293 30.18667846 -4.37870936 28.37435655 -4.0625 26.5625 C-3.88847656 25.55316406 -3.71445313 24.54382813 -3.53515625 23.50390625 C-3 21 -3 21 -2 20 C-1.77376479 18.51562191 -1.60587035 17.02222575 -1.46484375 15.52734375 C-1.37783203 14.62822266 -1.29082031 13.72910156 -1.20117188 12.80273438 C-1.11416016 11.85720703 -1.02714844 10.91167969 -0.9375 9.9375 C-0.80118164 8.5134082 -0.80118164 8.5134082 -0.66210938 7.06054688 C-0.43743502 4.70737865 -0.21691818 2.35389381 0 0 Z " fill="#727272" transform="translate(161,261)"/>
<path d="M0 0 C-1.65 0.66 -3.3 1.32 -5 2 C-2.96731398 4.16343011 -2.96731398 4.16343011 0 6 C-3.63 7.32 -7.26 8.64 -11 10 C-11.99 8.02 -12.98 6.04 -14 4 C-12.42466914 3.13116294 -10.83935491 2.28040932 -9.25 1.4375 C-8.36828125 0.96183594 -7.4865625 0.48617188 -6.578125 -0.00390625 C-3.79298812 -1.07998186 -2.73019786 -1.06528748 0 0 Z M-9 3 C-9.33 3.66 -9.66 4.32 -10 5 C-9.01 4.67 -8.02 4.34 -7 4 C-7.66 3.67 -8.32 3.34 -9 3 Z " fill="#3C3C3C" transform="translate(305,285)"/>
<path d="M0 0 C-1.61068359 0.77923828 -1.61068359 0.77923828 -3.25390625 1.57421875 C-4.69026565 2.2783165 -6.1264545 2.98276225 -7.5625 3.6875 C-8.26697266 4.02716797 -8.97144531 4.36683594 -9.69726562 4.71679688 C-14.49862683 7.08428835 -18.71683633 9.78622016 -23 13 C-20.70370006 14.14814997 -18.92301914 14.30769809 -16.375 14.5625 C-15.55773437 14.64628906 -14.74046875 14.73007812 -13.8984375 14.81640625 C-13.27195313 14.87699219 -12.64546875 14.93757813 -12 15 C-12 15.33 -12 15.66 -12 16 C-22.55808656 16.18451025 -22.55808656 16.18451025 -27 15 C-24.51266659 7.53799976 -12.17569164 3.39588306 -5.53125 -0.03125 C-3 -1 -3 -1 0 0 Z " fill="#8E8E8E" transform="translate(149,311)"/>
<path d="M0 0 C1.093125 0.16242188 2.18625 0.32484375 3.3125 0.4921875 C8.54365667 1.14377964 13.7349724 1.14651919 19 1.125 C19.94617188 1.12886719 20.89234375 1.13273438 21.8671875 1.13671875 C27.33809488 1.12914132 32.58790559 0.80415554 38 0 C38 0.66 38 1.32 38 2 C37.34 2 36.68 2 36 2 C35.34 3.32 34.68 4.64 34 6 C33.01 6 32.02 6 31 6 C31.66 5.34 32.32 4.68 33 4 C32.21351074 3.98018066 31.42702148 3.96036133 30.61669922 3.93994141 C27.03580958 3.84438767 23.45547902 3.73483064 19.875 3.625 C18.6375 3.5940625 17.4 3.563125 16.125 3.53125 C14.92617188 3.49257812 13.72734375 3.45390625 12.4921875 3.4140625 C10.84259033 3.36693115 10.84259033 3.36693115 9.15966797 3.31884766 C5.85764366 2.98563457 3.09867553 2.16353429 0 1 C0 0.67 0 0.34 0 0 Z " fill="#737373" transform="translate(299,135)"/>
<path d="M0 0 C0 3 0 3 -1.29296875 4.46484375 C-9.7083154 11.00625754 -19.41909666 13.71734938 -30 13 C-28.4375 10.9375 -28.4375 10.9375 -26 9 C-24.989375 9.165 -23.97875 9.33 -22.9375 9.5 C-15.56893764 10.43569046 -9.13869457 7.09898566 -3.3125 2.75 C-2.19714154 1.84698433 -1.0882741 0.93547917 0 0 Z " fill="#C7C7C7" transform="translate(178,212)"/>
<path d="M0 0 C0.53625 0.268125 1.0725 0.53625 1.625 0.8125 C1.29718843 3.87207468 0.56821599 4.87086134 -1.625 7.125 C-4.375 8.8125 -4.375 8.8125 -7.1875 8.5625 C-8.2703125 8.19125 -8.2703125 8.19125 -9.375 7.8125 C-7.97480384 3.61191151 -4.76370076 -0.37608164 0 0 Z " fill="#060606" transform="translate(359.375,231.1875)"/>
<path d="M0 0 C0.33 0.99 0.66 1.98 1 3 C-3.74435169 11.05291273 -11.05407829 18.15492579 -19 23 C-19.66 22.67 -20.32 22.34 -21 22 C-18.92481306 18.88721958 -18.20415158 18.48764181 -15 17 C-8.54295744 12.58768758 -4.36648986 6.37394104 0 0 Z " fill="#828282" transform="translate(137,192)"/>
<path d="M0 0 C9.57 0 19.14 0 29 0 C23 7 23 7 21 8 C22 6 23 4 24 2 C23.12263184 2.01571045 23.12263184 2.01571045 22.22753906 2.03173828 C19.56840337 2.07340264 16.90933647 2.09935901 14.25 2.125 C13.32960938 2.14175781 12.40921875 2.15851563 11.4609375 2.17578125 C10.12675781 2.18544922 10.12675781 2.18544922 8.765625 2.1953125 C7.54020996 2.21102295 7.54020996 2.21102295 6.29003906 2.22705078 C4 2 4 2 0 0 Z " fill="#676767" transform="translate(285,161)"/>
<path d="M0 0 C1.31225809 3.93677426 0.3393954 5.7794262 -0.9375 9.6875 C-1.31777344 10.86699219 -1.69804687 12.04648437 -2.08984375 13.26171875 C-2.54037109 14.61716797 -2.54037109 14.61716797 -3 16 C-1.68 15.67 -0.36 15.34 1 15 C0.04578192 16.14926266 -0.91352045 17.29430541 -1.875 18.4375 C-2.40867188 19.07558594 -2.94234375 19.71367187 -3.4921875 20.37109375 C-5 22 -5 22 -7 23 C-5.48526781 15.01323028 -2.83197448 7.59877122 0 0 Z " fill="#848484" transform="translate(208,368)"/>
<path d="M0 0 C0.66 0 1.32 0 2 0 C2.97663048 1.38075343 3.94364857 2.76986321 4.84765625 4.19921875 C6.77899862 7.21735039 8.90671077 10.09265385 11 13 C6.7257442 11.4169423 4.73468206 8.49431596 2 5 C2 9.95 2 14.9 2 20 C-0.03120707 16.95318939 -0.24659875 16.39881676 -0.1953125 12.98828125 C-0.18886719 12.23095703 -0.18242187 11.47363281 -0.17578125 10.69335938 C-0.15902344 9.90767578 -0.14226562 9.12199219 -0.125 8.3125 C-0.11597656 7.51521484 -0.10695312 6.71792969 -0.09765625 5.89648438 C-0.07411585 3.930861 -0.03824547 1.96539225 0 0 Z " fill="#7B7B7B" transform="translate(251,137)"/>
<path d="M0 0 C1.03125 0.78375 2.0625 1.5675 3.125 2.375 C9.33075013 7.03491345 15.67464652 11.50473475 22 16 C21.67 16.66 21.34 17.32 21 18 C6.00524934 8.46019248 6.00524934 8.46019248 0 2 C0 1.34 0 0.68 0 0 Z " fill="#B9B9B9" transform="translate(355,298)"/>
<path d="M0 0 C0.66 0 1.32 0 2 0 C2.66 1.65 3.32 3.3 4 5 C3.67 5 3.34 5 3 5 C2.80664062 6.19238281 2.61328125 7.38476562 2.4140625 8.61328125 C2.15142084 10.17975112 1.88837912 11.74615395 1.625 13.3125 C1.49867188 14.09818359 1.37234375 14.88386719 1.2421875 15.69335938 C1.11328125 16.45068359 0.984375 17.20800781 0.8515625 17.98828125 C0.73635254 18.68477783 0.62114258 19.38127441 0.50244141 20.09887695 C0 22 0 22 -2 25 C-1.84660156 24.03964844 -1.69320312 23.07929688 -1.53515625 22.08984375 C-0.89288765 17.59396353 -0.66031389 13.09548428 -0.4375 8.5625 C-0.39431641 7.73556641 -0.35113281 6.90863281 -0.30664062 6.05664062 C-0.20161967 4.03790451 -0.10041441 2.01897049 0 0 Z " fill="#696969" transform="translate(177,171)"/>
<path d="M0 0 C1.19127947 4.01409388 0.73846103 6.12797316 -1 10 C-3.25 12.5 -3.25 12.5 -6 15 C-7.10937491 16.09893374 -8.21354158 17.20314954 -9.3125 18.3125 C-10.199375 19.199375 -11.08625 20.08625 -12 21 C-12.66 20.67 -13.32 20.34 -14 20 C-13.40832031 19.39414063 -12.81664062 18.78828125 -12.20703125 18.1640625 C-6.87707941 12.51240068 -3.03093101 7.15848027 0 0 Z " fill="#8E8E8E" transform="translate(241,124)"/>
<path d="M0 0 C5.54050113 0.56825653 10.03715966 2.62886517 15 5 C14.67 3.68 14.34 2.36 14 1 C16 2.8125 16 2.8125 18 5 C18 5.99 18 6.98 18 8 C13.3110507 7.44380331 9.80075733 6.11817327 5.625 3.9375 C4.56539063 3.38964844 3.50578125 2.84179688 2.4140625 2.27734375 C1.61742187 1.85582031 0.82078125 1.43429687 0 1 C0 0.67 0 0.34 0 0 Z " fill="#AEAEAE" transform="translate(393,342)"/>
<path d="M0 0 C2.24973447 -0.054138 4.49984383 -0.09285491 6.75 -0.125 C8.00296875 -0.14820313 9.2559375 -0.17140625 10.546875 -0.1953125 C14 0 14 0 18 2 C12.06 2.495 12.06 2.495 6 3 C6.66 4.32 7.32 5.64 8 7 C6.66382648 6.02471263 5.3311249 5.04466681 4 4.0625 C3.2575 3.51722656 2.515 2.97195312 1.75 2.41015625 C1.1725 1.94480469 0.595 1.47945312 0 1 C0 0.67 0 0.34 0 0 Z " fill="#8B8B8B" transform="translate(102,228)"/>
<path d="M0 0 C-1.50349377 3.66786393 -3.63728792 5.68910393 -6.625 8.25 C-7.44226563 8.95640625 -8.25953125 9.6628125 -9.1015625 10.390625 C-9.72804688 10.92171875 -10.35453125 11.4528125 -11 12 C-11 8.26071501 -10.08040398 7.59097747 -7.625 4.875 C-6.99851562 4.17117188 -6.37203125 3.46734375 -5.7265625 2.7421875 C-3.76461964 0.7624895 -2.80497398 0 0 0 Z " fill="#676767" transform="translate(291,290)"/>
<path d="M0 0 C0.66 0.33 1.32 0.66 2 1 C2.625 3.0625 2.625 3.0625 3 5 C0.03 7.475 0.03 7.475 -3 10 C-3.66 8.68 -4.32 7.36 -5 6 C-3.35 4.02 -1.7 2.04 0 0 Z " fill="#070707" transform="translate(291,290)"/>
<path d="M0 0 C5.46295835 1.54083441 9.06058205 2.78889806 13 7 C16.13350717 8.26784124 16.13350717 8.26784124 19 9 C16.1379741 10.1792926 15.05291331 10.01953176 12.08984375 8.92578125 C11.04957031 8.39339844 10.00929688 7.86101562 8.9375 7.3125 C7.89464844 6.79300781 6.85179687 6.27351562 5.77734375 5.73828125 C3.0760259 4.04758301 1.6802658 2.66865744 0 0 Z " fill="#A5A5A5" transform="translate(262,150)"/>
<path d="M0 0 C0 0.66 0 1.32 0 2 C-0.99 2 -1.98 2 -3 2 C-3.33 3.32 -3.66 4.64 -4 6 C-5.1446875 6.12375 -5.1446875 6.12375 -6.3125 6.25 C-9.55524435 7.15495191 -10.16265816 8.28773348 -12 11 C-12.66 11 -13.32 11 -14 11 C-14 10.01 -14 9.02 -14 8 C-11.4453125 5.95703125 -11.4453125 5.95703125 -8.125 3.8125 C-7.03445313 3.09707031 -5.94390625 2.38164062 -4.8203125 1.64453125 C-2 0 -2 0 0 0 Z " fill="#666666" transform="translate(343,338)"/>
<path d="M0 0 C-0.66 1.32 -1.32 2.64 -2 4 C-8.75 3.25 -8.75 3.25 -11 1 C-3.375 -1.125 -3.375 -1.125 0 0 Z M-13 2 C-12.34 2.33 -11.68 2.66 -11 3 C-11.99 3 -12.98 3 -14 3 C-13.67 2.67 -13.34 2.34 -13 2 Z " fill="#030303" transform="translate(309,286)"/>
<path d="M0 0 C1.30138475 2.95769261 0.92164603 4.26934178 0 7.4375 C-1.96578863 11.71978133 -5.07213801 13.55435008 -9 16 C-9.66 15.67 -10.32 15.34 -11 15 C-9.71034824 13.62437146 -8.37310707 12.29233607 -7 11 C-6.34 11 -5.68 11 -5 11 C-3.13448574 7.41247258 -1.57464072 3.72187807 0 0 Z " fill="#9B9B9B" transform="translate(242,155)"/>
<path d="M0 0 C0.33 0 0.66 0 1 0 C1 5.61 1 11.22 1 17 C0.67 17 0.34 17 0 17 C-0.33 13.37 -0.66 9.74 -1 6 C-3.97 8.475 -3.97 8.475 -7 11 C-5.23867546 6.99698968 -2.73867517 3.3971023 0 0 Z " fill="#797979" transform="translate(243,138)"/>
<path d="M0 0 C0.66 0.33 1.32 0.66 2 1 C0.46947884 2.47002626 -1.07496854 3.92556056 -2.625 5.375 C-3.91277344 6.59316406 -3.91277344 6.59316406 -5.2265625 7.8359375 C-8.11191349 10.08732405 -10.48795677 11.06276852 -14 12 C-14 11.34 -14 10.68 -14 10 C-12.20703125 8.6328125 -12.20703125 8.6328125 -9.8125 7.125 C-6.37649041 4.91381402 -3.13571327 2.62995307 0 0 Z " fill="#8F8F8F" transform="translate(229,116)"/>
<path d="M0 0 C5.58996969 -0.34937311 9.96212855 0.47527362 15 3 C15.66 3.66 16.32 4.32 17 5 C11.06 4.01 11.06 4.01 5 3 C4.67 3.66 4.34 4.32 4 5 C2.68 3.35 1.36 1.7 0 0 Z " fill="#7A7A7A" transform="translate(145,232)"/>
<path d="M0 0 C0 3.96 0 7.92 0 12 C-0.66 11.67 -1.32 11.34 -2 11 C-2.625 7.9375 -2.625 7.9375 -3 5 C-4.65 6.32 -6.3 7.64 -8 9 C-6.78641212 6.02119338 -3.58154637 0 0 0 Z " fill="#8E8E8E" transform="translate(322,164)"/>
<path d="M0 0 C1.98 0.99 1.98 0.99 4 2 C3.67 2.66 3.34 3.32 3 4 C2.92889421 7.21753678 3.00318977 10.42304486 3.0625 13.640625 C3.00246501 16.86750594 2.61354287 19.83641958 2 23 C1.67 23 1.34 23 1 23 C0.67 15.41 0.34 7.82 0 0 Z " fill="#4F4F4F" transform="translate(148,139)"/>
<path d="M0 0 C0.33 0 0.66 0 1 0 C1.94833904 4.83652909 2.05553438 7.54634219 0 12 C-0.37593066 13.9924325 -0.71979545 15.9918674 -1 18 C-1.66 18 -2.32 18 -3 18 C-2.69272975 15.18683642 -2.37944848 12.37457481 -2.0625 9.5625 C-1.97548828 8.76005859 -1.88847656 7.95761719 -1.79882812 7.13085938 C-1.11328125 1.11328125 -1.11328125 1.11328125 0 0 Z " fill="#797979" transform="translate(242,64)"/>
<path d="M0 0 C0.66 0.33 1.32 0.66 2 1 C-0.64 2.98 -3.28 4.96 -6 7 C-3.69 7.66 -1.38 8.32 1 9 C-2.81756824 10.37432457 -6.07255329 9.67975039 -10 9 C-8.6562739 4.9688217 -6.54628069 4.19869403 -3 2 C-2.01 1.34 -1.02 0.68 0 0 Z " fill="#888888" transform="translate(193,276)"/>
<path d="M0 0 C0.33 0 0.66 0 1 0 C1.10822792 3.06345144 1.18741479 6.1230601 1.25 9.1875 C1.28351563 10.05181641 1.31703125 10.91613281 1.3515625 11.80664062 C1.41837569 16.16620157 1.41222114 18.36329409 -1.015625 22.11328125 C-1.67046875 22.73589844 -2.3253125 23.35851562 -3 24 C-2.86722656 23.35675781 -2.73445312 22.71351563 -2.59765625 22.05078125 C-1.16447603 14.71750143 -0.45034931 7.45446622 0 0 Z " fill="#A6A6A6" transform="translate(142,150)"/>
<path d="M0 0 C0.66 0.33 1.32 0.66 2 1 C-0.06567864 3.75423819 -1.97693375 5.98176157 -4.6875 8.125 C-7.25247789 9.86120977 -7.25247789 9.86120977 -8 13 C-8.99 13 -9.98 13 -11 13 C-9.46356148 9.31930113 -7.21849055 7.01224796 -4.375 4.25 C-3.55773437 3.45078125 -2.74046875 2.6515625 -1.8984375 1.828125 C-0.95871094 0.92320312 -0.95871094 0.92320312 0 0 Z " fill="#797979" transform="translate(394,231)"/>
<path d="M0 0 C0.80566406 0.09345703 1.61132812 0.18691406 2.44140625 0.28320312 C3.28316406 0.38697266 4.12492188 0.49074219 4.9921875 0.59765625 C5.84167969 0.69755859 6.69117188 0.79746094 7.56640625 0.90039062 C9.66731027 1.14825009 11.76733899 1.4035081 13.8671875 1.66015625 C13.8671875 1.99015625 13.8671875 2.32015625 13.8671875 2.66015625 C7.2671875 2.66015625 0.6671875 2.66015625 -6.1328125 2.66015625 C-6.1328125 2.00015625 -6.1328125 1.34015625 -6.1328125 0.66015625 C-3.71746002 -0.54751999 -2.65434842 -0.31777411 0 0 Z " fill="#454545" transform="translate(124.1328125,325.33984375)"/>
<path d="M0 0 C0.50789063 0.38671875 1.01578125 0.7734375 1.5390625 1.171875 C5.61331983 4.25427193 9.71647931 7.21571155 14 10 C11.3333581 11.33332095 9.83319697 10.67102033 7 10 C6.67 9.01 6.34 8.02 6 7 C4.00334402 5.32932867 2.00348966 3.66247014 0 2 C0 1.34 0 0.68 0 0 Z " fill="#9A9A9A" transform="translate(324,280)"/>
<path d="M0 0 C0.27429625 5.39449293 0.36055646 8.51925805 -3 13 C-4 11 -4 11 -3.4375 8.625 C-2.93474262 5.60845574 -3.40328736 4.53595537 -5 2 C-1.125 0 -1.125 0 0 0 Z " fill="#636363" transform="translate(244,170)"/>
<path d="M0 0 C0.66 1.32 1.32 2.64 2 4 C-0.65654657 7.73884332 -2.58110387 9.64978174 -7 11 C-5.22054913 6.95579349 -2.60470327 3.53921513 0 0 Z " fill="#727272" transform="translate(133,185)"/>
<path d="M0 0 C0.78117187 0.39832031 0.78117187 0.39832031 1.578125 0.8046875 C4.61030108 2.30121311 7.67808137 3.71191743 10.75 5.125 C12.50570313 5.93324219 12.50570313 5.93324219 14.296875 6.7578125 C15.18890625 7.16773438 16.0809375 7.57765625 17 8 C14.37343952 8.99333958 13.2239486 9.07747985 10.52734375 8.14453125 C9.67269531 7.70496094 8.81804687 7.26539063 7.9375 6.8125 C7.08027344 6.38582031 6.22304688 5.95914063 5.33984375 5.51953125 C2.89718164 3.93322814 1.58155957 2.42160104 0 0 Z " fill="#B1B1B1" transform="translate(256,176)"/>
<path d="M0 0 C0.66 0.33 1.32 0.66 2 1 C1.855625 1.70125 1.71125 2.4025 1.5625 3.125 C0.98521625 6.07556141 0.48304859 9.03270151 0 12 C-1.5625 10.9375 -1.5625 10.9375 -3 9 C-2.66666667 2.66666667 -2.66666667 2.66666667 0 0 Z " fill="#4C4C4C" transform="translate(349,130)"/>
<path d="M0 0 C0.99 0.33 1.98 0.66 3 1 C2.40832031 1.45890625 1.81664062 1.9178125 1.20703125 2.390625 C-2.88379822 5.56719079 -6.96818271 8.74853444 -11 12 C-9.60609461 8.84280428 -7.96365028 6.7187347 -5.5 4.3125 C-4.8915625 3.71050781 -4.283125 3.10851562 -3.65625 2.48828125 C-2 1 -2 1 0 0 Z " fill="#D4D4D4" transform="translate(310,312)"/>
<path d="M0 0 C2.97 1.65 5.94 3.3 9 5 C9 3.35 9 1.7 9 0 C9.33 0 9.66 0 10 0 C10.33 2.64 10.66 5.28 11 8 C6.89160936 6.54997977 3.49655387 4.6020866 0 2 C0 1.34 0 0.68 0 0 Z " fill="#C1C1C1" transform="translate(300,266)"/>
<path d="M0 0 C0.66 0.33 1.32 0.66 2 1 C-0.31 2.32 -2.62 3.64 -5 5 C-4.34 5.66 -3.68 6.32 -3 7 C-5.64 7 -8.28 7 -11 7 C-11 6.34 -11 5.68 -11 5 C-9.21289414 4.13633178 -7.4201535 3.28431406 -5.625 2.4375 C-4.62726563 1.96183594 -3.62953125 1.48617187 -2.6015625 0.99609375 C-1.74304688 0.66738281 -0.88453125 0.33867187 0 0 Z " fill="#7B7B7B" transform="translate(114,215)"/>
<path d="M0 0 C0 0.66 0 1.32 0 2 C-0.66 2 -1.32 2 -2 2 C-2.66 3.32 -3.32 4.64 -4 6 C-4.99 6 -5.98 6 -7 6 C-6.34 5.34 -5.68 4.68 -5 4 C-7.97 3.505 -7.97 3.505 -11 3 C-7.4144509 0.60963393 -4.2914923 0 0 0 Z " fill="#878787" transform="translate(337,135)"/>
<path d="M0 0 C0 3.97054597 -1.3139381 5.16471244 -4 8 C-6.25 8.8125 -6.25 8.8125 -8 9 C-7.34 7.02 -6.68 5.04 -6 3 C-5.01 3 -4.02 3 -3 3 C-1.31201173 1.56249809 -1.31201173 1.56249809 0 0 Z " fill="#A2A2A2" transform="translate(164,284)"/>
<path d="M0 0 C0.66 0 1.32 0 2 0 C1.51675181 5.15464734 -1.18610761 8.81550319 -4 13 C-5 10 -5 10 -4.00390625 7.51953125 C-3.52824219 6.62621094 -3.05257812 5.73289063 -2.5625 4.8125 C-2.08941406 3.91144531 -1.61632812 3.01039063 -1.12890625 2.08203125 C-0.75636719 1.39496094 -0.38382813 0.70789063 0 0 Z " fill="#9C9C9C" transform="translate(143,181)"/>
<path d="M0 0 C1.18851563 0.19464844 2.37703125 0.38929688 3.6015625 0.58984375 C4.97441406 0.82380859 4.97441406 0.82380859 6.375 1.0625 C6.375 1.3925 6.375 1.7225 6.375 2.0625 C1.425 2.0625 -3.525 2.0625 -8.625 2.0625 C-8.625 1.4025 -8.625 0.7425 -8.625 0.0625 C-5.61666904 -1.44166548 -3.27538422 -0.54589737 0 0 Z " fill="#9E9E9E" transform="translate(164.625,300.9375)"/>
<path d="M0 0 C2.00885335 0.52002232 3.98454087 1.16411779 5.953125 1.8203125 C2.74932483 3.95617928 1.93372533 4.05163425 -1.734375 3.9453125 C-2.94673828 3.91824219 -2.94673828 3.91824219 -4.18359375 3.890625 C-5.10591797 3.85582031 -5.10591797 3.85582031 -6.046875 3.8203125 C-3.15469741 -0.27693909 -3.15469741 -0.27693909 0 0 Z " fill="#7C7C7C" transform="translate(154.046875,221.1796875)"/>
<path d="M0 0 C0.90105469 0.01804688 1.80210937 0.03609375 2.73046875 0.0546875 C3.41753906 0.07789063 4.10460937 0.10109375 4.8125 0.125 C3.3275 2.105 3.3275 2.105 1.8125 4.125 C1.8125 3.465 1.8125 2.805 1.8125 2.125 C-1.4875 2.125 -4.7875 2.125 -8.1875 2.125 C-4.87379 -0.08414 -3.8428979 -0.09981553 0 0 Z " fill="#777777" transform="translate(315.1875,231.875)"/>
<path d="M0 0 C3.63 1.65 7.26 3.3 11 5 C11 5.33 11 5.66 11 6 C8.1875 6.6875 8.1875 6.6875 5 7 C3.125 5.6875 3.125 5.6875 2 4 C2 3.34 2 2.68 2 2 C1.34 2 0.68 2 0 2 C0 1.34 0 0.68 0 0 Z " fill="#454545" transform="translate(210,190)"/>
<path d="M0 0 C1.98 0 3.96 0 6 0 C5.82374165 2.37948772 5.30280227 3.70225849 3.59765625 5.37890625 C2.09350908 6.62115486 0.54870149 7.81376056 -1 9 C-1 8.01 -1 7.02 -1 6 C1.5 3.8125 1.5 3.8125 4 2 C2.68 1.34 1.36 0.68 0 0 Z " fill="#464646" transform="translate(352,228)"/>
<path d="M0 0 C-2.31 2.31 -4.62 4.62 -7 7 C-7 4 -7 4 -5 1 C-5.99 0.67 -6.98 0.34 -8 0 C-4.63458162 -1.08174162 -3.70152678 -0.92538169 0 0 Z " fill="#9B9B9B" transform="translate(314,162)"/>
<path d="M0 0 C1 2 1 2 0.22265625 4.8203125 C-0.16019531 5.91085938 -0.54304688 7.00140625 -0.9375 8.125 C-1.31777344 9.22070312 -1.69804687 10.31640625 -2.08984375 11.4453125 C-2.39019531 12.28835937 -2.69054687 13.13140625 -3 14 C-3.96484618 10.94807521 -4.00348185 8.9628162 -3.1875 5.875 C-3.01605469 5.19179687 -2.84460938 4.50859375 -2.66796875 3.8046875 C-2 2 -2 2 0 0 Z " fill="#626262" transform="translate(360,132)"/>
<path d="M0 0 C1.984375 1.17578125 1.984375 1.17578125 4 3 C4.390625 5.48046875 4.390625 5.48046875 4.25 8.1875 C4.21390625 9.08855469 4.1778125 9.98960937 4.140625 10.91796875 C4.09421875 11.60503906 4.0478125 12.29210937 4 13 C2.42445965 10.11371599 1.53723627 7.46657616 0.875 4.25 C0.70742187 3.45078125 0.53984375 2.6515625 0.3671875 1.828125 C0.24601563 1.22484375 0.12484375 0.6215625 0 0 Z " fill="#959595" transform="translate(183,378)"/>
<path d="M0 0 C1 3 1 3 0.0625 5.1875 C-0.4634375 6.0846875 -0.4634375 6.0846875 -1 7 C-1.66 7 -2.32 7 -3 7 C-3 7.66 -3 8.32 -3 9 C-3.66 9 -4.32 9 -5 9 C-5.33 8.01 -5.66 7.02 -6 6 C-4 4 -2 2 0 0 Z " fill="#3E3E3E" transform="translate(144,298)"/>
<path d="M0 0 C0 0.33 0 0.66 0 1 C-0.60328125 1.03738281 -1.2065625 1.07476562 -1.828125 1.11328125 C-6.4473289 1.49324802 -9.46934101 1.75179373 -13 5 C-13.66 5 -14.32 5 -15 5 C-15 4.01 -15 3.02 -15 2 C-10.13948404 -0.59227518 -5.34728867 -0.18689553 0 0 Z " fill="#6D6D6D" transform="translate(213,269)"/>
<path d="M0 0 C1.10336858 3.31010574 1.13531135 5.6813976 0 9 C-2.0625 10.3125 -2.0625 10.3125 -4 11 C-2.7874262 7.27566618 -1.49140021 3.62197194 0 0 Z " fill="#808080" transform="translate(138,174)"/>
<path d="M0 0 C3 2 3 2 3.6875 5.125 C3.790625 6.07375 3.89375 7.0225 4 8 C2.35 7.67 0.7 7.34 -1 7 C-0.67 4.69 -0.34 2.38 0 0 Z " fill="#464646" transform="translate(404,339)"/>
<path d="M0 0 C0.99 0.33 1.98 0.66 3 1 C0.36 3.97 -2.28 6.94 -5 10 C-5.33 9.34 -5.66 8.68 -6 8 C-4.02 5.36 -2.04 2.72 0 0 Z " fill="#999999" transform="translate(325,241)"/>
<path d="M0 0 C2.5 2.3125 2.5 2.3125 5 5 C5 5.99 5 6.98 5 8 C3.68 7.34 2.36 6.68 1 6 C0.67 6.66 0.34 7.32 0 8 C0.185625 7.236875 0.37125 6.47375 0.5625 5.6875 C1.22819173 2.91032625 1.22819173 2.91032625 0 0 Z " fill="#4E4E4E" transform="translate(150,237)"/>
<path d="M0 0 C0.99 0.99 1.98 1.98 3 3 C1.35 4.32 -0.3 5.64 -2 7 C-2.66 6.67 -3.32 6.34 -4 6 C-1.125 1.125 -1.125 1.125 0 0 Z " fill="#3B3B3B" transform="translate(223,345)"/>
<path d="M0 0 C2.97 0.99 5.94 1.98 9 3 C9 3.99 9 4.98 9 6 C2.25 3.375 2.25 3.375 0 0 Z " fill="#616161" transform="translate(262,150)"/>
<path d="M0 0 C0.66 0.33 1.32 0.66 2 1 C-0.31 3.31 -2.62 5.62 -5 8 C-5.66 7.67 -6.32 7.34 -7 7 C-5.74797133 3.24391399 -4.36936427 2.85315035 -1 1 C-0.67 0.67 -0.34 0.34 0 0 Z " fill="#3C3C3C" transform="translate(362,109)"/>
<path d="M0 0 C0.33 1.32 0.66 2.64 1 4 C0.278125 3.979375 -0.44375 3.95875 -1.1875 3.9375 C-3.91925138 3.99820559 -6.34256091 4.39258535 -9 5 C-2.40909091 0 -2.40909091 0 0 0 Z " fill="#6F6F6F" transform="translate(281,193)"/>
<path d="M0 0 C0.99 1.32 1.98 2.64 3 4 C2.34 4.66 1.68 5.32 1 6 C-1.125 5.625 -1.125 5.625 -3 5 C-2.625 3.0625 -2.625 3.0625 -2 1 C-1.34 0.67 -0.68 0.34 0 0 Z " fill="#525252" transform="translate(305,169)"/>
<path d="M0 0 C2 1.8125 2 1.8125 4 4 C4 4.99 4 5.98 4 7 C3.01 7 2.02 7 1 7 C1 6.34 1 5.68 1 5 C0.34 4.67 -0.32 4.34 -1 4 C-0.34 4 0.32 4 1 4 C0.67 2.68 0.34 1.36 0 0 Z " fill="#909090" transform="translate(407,343)"/>
<path d="M0 0 C0.66 0.33 1.32 0.66 2 1 C0.35 2.65 -1.3 4.3 -3 6 C-3 5.34 -3 4.68 -3 4 C-4.65 4 -6.3 4 -8 4 C-6.66666667 3.33333333 -5.33333333 2.66666667 -4 2 C-3.29875 1.608125 -2.5975 1.21625 -1.875 0.8125 C-1.25625 0.544375 -0.6375 0.27625 0 0 Z " fill="#808080" transform="translate(231,192)"/>
<path d="M0 0 C0.99 0.33 1.98 0.66 3 1 C0.1875 3.0625 0.1875 3.0625 -3 5 C-3.99 4.67 -4.98 4.34 -6 4 C-3.1875 1.9375 -3.1875 1.9375 0 0 Z " fill="#CACACA" transform="translate(214,117)"/>
<path d="M0 0 C0.66 0.33 1.32 0.66 2 1 C1.0479279 2.00596297 0.08812654 3.00461563 -0.875 4 C-1.40867188 4.556875 -1.94234375 5.11375 -2.4921875 5.6875 C-4 7 -4 7 -6 7 C-4.60667426 3.63279613 -3.0210714 2.0140476 0 0 Z " fill="#A1A1A1" transform="translate(229,116)"/>
</svg>
